<svg width="1097" height="721" fill="none" xmlns="http://www.w3.org/2000/svg"><path opacity=".2" d="M-88.193 0L1408.61 728.783M-176.241 42.87L1320.57 771.651M-264.289 85.74L1232.52 814.521M-352.336 128.608L1144.47 857.391M-440.383 171.479L1056.42 900.261M-528.43 214.348L968.377 943.13M-616.478 257.218L880.33 986.001M-704.526 300.087L792.281 1028.87M-792.574 342.957L704.234 1071.74M-880.62 385.826L616.187 1114.61M-968.668 428.695L528.139 1157.48M-1056.71 471.565L440.093 1200.35M-1144.76 514.435L352.045 1243.22M-1232.81 557.305L263.996 1286.09M-1320.86 600.174L175.949 1328.96M-1408.91 643.044L87.902 1371.83M-1496.95 685.913L-.145 1414.7M87.902 85.74L-1408.91 814.521M175.949 128.608L-1320.86 857.391M263.997 171.479L-1232.81 900.261M352.045 214.348L-1144.76 943.13M440.092 257.218L-1056.72 986.001M528.139 300.087L-968.668 1028.87M616.187 342.957L-880.621 1071.74M704.217 385.826L-792.59 1114.61M792.265 428.695L-704.543 1157.48M880.312 471.565L-616.496 1200.35M968.359 514.435L-528.448 1243.22M1056.41 557.305L-440.401 1286.09M1144.45 600.174L-352.353 1328.96M1232.5 643.044L-264.306 1371.83" stroke="#fff" stroke-opacity=".4"/></svg>