<svg id="prefix___Слой_1" data-name="Слой 1" xmlns="http://www.w3.org/2000/svg" version="1.1" viewBox="0 0 60.4 60.6"><defs><style>.prefix__cls-1{fill:#e9e9f1;stroke-width:0}</style></defs><path class="prefix__cls-1" d="M37.8.9l.9.8v-1c.1 0 .9.3.9.3l-.5.9h1.2v.6l-1.2-.2.6.9-.8.2-.3-1-.8.7-.6-.6 1-.4-1.1-.5.5-.6zM44.9 3.9l-1.1 1.9 3.1-.7 1.3.8-3.6.6 1 3.9-1.4-.9-.7-3.2h-.2l-1.1 1.9-1.1-.6 2.7-4.4 1.1.6zM52.7 10.1l3 4-4.1 3.1-.8-1 3.4-2.6-1.5-2-3.4 2.6-.8-1 4.1-3.1zM57.1 17.9c.7.4 1.2 1.1 1.6 2 .3.9.4 1.8.1 2.6-.3.8-.8 1.3-1.5 1.6-.7.3-1.5.2-2.2-.2-.7-.4-1.2-1.1-1.6-2-.3-.9-.4-1.8-.1-2.6.3-.8.8-1.3 1.5-1.6.7-.3 1.5-.2 2.2.2zm-2.7 1.9c-.2.5-.2 1 0 1.6.2.6.5 1 1 1.3.4.3.9.3 1.4.1s.8-.5 1-1c.2-.5.2-1 0-1.6-.2-.6-.5-1-1-1.3s-.9-.3-1.4-.1c-.5.2-.8.5-1 1zM60.1 26v1.9c.2.4.2.7.1 1 0 .3-.1.5-.3.7-.3.5-.7.7-1.2.7s-.9-.1-1.2-.4c-.3-.4-.5-.9-.6-1.6v-.8l-2 .2v-1.2c-.1 0 5.1-.4 5.1-.4zm-.7 1.4h-1.5v.6c0 .4.1.6.2.8.2.2.4.3.6.3.3 0 .4-.2.6-.4 0-.2.1-.5 0-.9v-.4zM58.9 36.4l.2-1.4-4.3-.6.2-1.2 4.3.6.2-1.4h.9c0 .1-.6 4.2-.6 4.2h-.9zM53.6 39.2l.7.3v-.2c.3-.7.7-1.2 1.1-1.5.6-.5 1.2-.5 1.9-.3.7.3 1.1.8 1.2 1.5 0 .5 0 1.1-.3 1.8v.2l.5.2-.5 1.2-.6-.2v.2c-.3.7-.7 1.2-1.1 1.5-.6.5-1.2.5-1.9.3-.7-.3-1.1-.8-1.2-1.5 0-.5 0-1.1.3-1.8v-.2l-.6-.3.5-1.2zm3.1 2.6l-2.2-.9v.2c-.2.4-.3.7-.2 1 0 .4.3.7.7.8.4.2.8.1 1.1-.1.2-.2.4-.4.6-.8v-.2zm-1.7-2l2.2.9v-.2c.2-.4.3-.7.2-1 0-.4-.3-.7-.7-.8-.4-.2-.7-.1-1.1.1-.2.2-.4.4-.6.8v.2zM54.1 47.7c0 .8-.4 1.6-1 2.4-.7.8-1.4 1.2-2.2 1.4-.8.1-1.5 0-2.1-.6-.6-.5-.9-1.2-.9-2s.4-1.6 1-2.4c.7-.8 1.4-1.2 2.2-1.4.8-.2 1.5 0 2.1.6.6.5.9 1.2.9 2zm-3-1.4c-.5 0-1 .4-1.4.8-.4.5-.6 1-.6 1.5s.2.9.6 1.3c.4.3.9.5 1.4.4s1-.4 1.4-.8c.4-.5.6-1 .6-1.5s-.2-1-.6-1.3c-.4-.3-.9-.5-1.4-.4zM47.9 54.8l-3.7 2.3-2.8-4.4 1.1-.7 2.3 3.6 1.6-1-1.2-1.9c-.1-.2-.2-.3-.2-.4l-.2-.4v-.5c0-.2 0-.3.1-.5.2-.4.5-.7.9-1 .2 0 .3-.2.5-.2l.5.7c-.1 0-.2 0-.3.2-.2.1-.3.3-.4.5v.4c0 .1 0 .3.1.4 0 0 .1.2.3.4l1.6 2.5zM41.2 58.5l-1.2.3-1-3.3-2.4 4.3-.8.2-1.4-5 1.2-.3 1 3.3 2.4-4.3.8-.2 1.4 5zM31.8 59.9c-.6.5-1.5.7-2.5.7s-1.8-.3-2.4-.8c-.6-.5-.9-1.2-.9-2s.4-1.4 1-1.9 1.5-.7 2.5-.7 1.8.3 2.4.8c.6.5.9 1.2.9 2s-.4 1.4-1 1.9zm-.8-3.3c-.4-.3-.9-.5-1.5-.5s-1.1.1-1.5.5-.6.7-.6 1.3c0 .5.2 1 .6 1.3.4.3.9.5 1.5.5s1.1-.1 1.5-.5.6-.7.6-1.3c0-.5-.2-1-.6-1.3zM22.4 59.6l-.9-.8v1c-.1 0-.9-.3-.9-.3l.5-.9h-1.2V58l1.2.2-.6-.9.8-.2.3 1 .8-.7.6.6-1 .4 1.1.5-.5.6zM15.3 56.6l1.1-1.9-3.1.6-1.3-.8 3.6-.6-1-3.9 1.4.9.7 3.2h.2l1.2-1.9 1.1.7-2.7 4.4-1.1-.7zM7.5 50.4l-3-4 4.2-3.1.7 1-3.5 2.6L7.4 49l3.5-2.6.7 1-4.2 3.1zM3.2 42.6c-.7-.4-1.2-1.1-1.5-2.1s-.4-1.8-.1-2.6c.3-.8.8-1.3 1.5-1.6.7-.3 1.5-.2 2.2.2.7.4 1.2 1.1 1.5 2.1.3.9.4 1.8.1 2.6-.3.8-.8 1.3-1.5 1.6-.7.3-1.5.2-2.2-.2zm2.7-2c.2-.5.2-1 0-1.6-.2-.6-.5-1-1-1.3s-.9-.3-1.4-.1c-.5.2-.8.5-1 1-.2.5-.2 1 0 1.6.2.6.5 1 1 1.3.5.3.9.3 1.4.1.5-.2.8-.5 1-1zM.2 34.4v-1.9c-.2-.4-.2-.7-.1-1 0-.3.1-.5.3-.7.3-.5.7-.7 1.2-.7s.9.1 1.2.4c.3.4.5.9.6 1.6v.8l2-.1V34l-5.1.4zm.8-1.3h1.5v-.6c0-.4-.1-.6-.2-.8-.2-.2-.4-.3-.6-.3-.3 0-.4.2-.6.4 0 .2-.1.5 0 .9v.4zM1.5 24.1l-.2 1.4 4.3.6-.2 1.2-4.3-.6-.2 1.4H0c0-.1.6-4.2.6-4.2h.9zM6.8 21.3l-.7-.3v.2c-.4.7-.7 1.2-1.1 1.5-.6.5-1.2.5-1.9.3-.7-.3-1.1-.8-1.2-1.5 0-.5 0-1.1.3-1.8v-.2l-.5-.2.5-1.2.6.2v-.2c.4-.7.7-1.2 1.1-1.5.6-.4 1.2-.5 1.9-.3.7.3 1.1.8 1.2 1.5 0 .5 0 1.1-.3 1.8v.2l.6.3-.5 1.2zm-1.4-.6l-2.2-.9v.2c-.2.4-.3.7-.2 1 0 .4.3.7.7.8.4.2.7.1 1.1-.1.2-.2.4-.4.6-.8v-.2zm-1.7-2l2.2.9v-.2c.2-.4.3-.7.2-1 0-.4-.3-.7-.7-.8-.4-.2-.8-.1-1.1.1-.2.2-.4.4-.6.8v.2zM6.3 12.7c0-.8.4-1.6 1-2.4.7-.8 1.4-1.2 2.2-1.4.8-.1 1.5 0 2.1.6.6.5.9 1.2.8 2 0 .8-.4 1.6-1 2.3-.7.8-1.4 1.2-2.2 1.4-.8.1-1.5 0-2.1-.6-.6-.5-.9-1.2-.8-2zm3 1.5c.5 0 1-.4 1.4-.8.4-.5.6-1 .6-1.5s-.2-.9-.6-1.3c-.4-.3-.9-.5-1.4-.4-.5 0-1 .4-1.4.8-.4.5-.6 1-.6 1.5s.2 1 .6 1.3c.4.3.8.5 1.4.4zM12.6 5.7l3.7-2.3 2.8 4.4-1.1.7-2.3-3.7-1.6 1 1.2 2c.1.2.2.3.2.4l.2.4v.5c0 .2 0 .3-.1.5-.2.4-.5.7-.9 1-.2 0-.3.2-.5.2l-.5-.7c.1 0 .2 0 .3-.1.2-.1.3-.3.4-.5v-.4c0-.1 0-.3-.1-.4 0 0-.1-.2-.3-.4l-1.6-2.5zM19.2 2l1.2-.3.9 3.3L23.7.7l.8-.2 1.4 5-1.2.3-.9-3.3-2.4 4.3-.8.2-1.4-5zM28.7.7c.6-.5 1.5-.7 2.5-.7s1.8.3 2.4.8c.6.5.9 1.2.9 2s-.4 1.4-1 1.9c-.7.5-1.5.7-2.5.7s-1.8-.3-2.4-.8-.9-1.2-.9-2 .4-1.4 1-1.9zm.8 3.2c.4.3.9.5 1.5.6.6 0 1.1-.1 1.5-.4.4-.3.6-.7.6-1.3s-.2-1-.6-1.3c-.4-.3-.9-.5-1.5-.6-.6 0-1.1.1-1.5.5-.4.3-.6.7-.6 1.3 0 .5.2 1 .6 1.3z"/></svg>