<svg id="prefix___Слой_1" data-name="Слой 1" xmlns="http://www.w3.org/2000/svg" version="1.1" viewBox="0 0 64.5 64.7"><defs><style>.prefix__cls-1{fill:#e9e9f1;stroke-width:0}</style></defs><path class="prefix__cls-1" d="M40.7 1.1l1 1 .2-1.4.9.3-.6 1.2 1.4-.2v1l-1.4-.2.6 1.2-1 .3-.2-1.4-1 1-.6-.8 1.2-.6-1.2-.6.6-.8zM48.2 4.3l-1.6 2.6 3.9-1.2 1.5.9-4.3 1.2.7 5-1.6-1-.5-4.1h-.2l-1.6 2.7-1.2-.7 3.8-6.1 1.2.7zM56 10.5l3.5 4.5-5.7 4.4-.9-1.1 4.8-3.7-1.8-2.3-4.8 3.7-.9-1.1 5.7-4.4zM60.6 18.8c.9.4 1.6 1.2 2 2.2.4 1.1.4 2 0 3-.4.9-1.1 1.6-2.2 2-1 .4-2 .4-2.9 0-.9-.4-1.6-1.2-2-2.2s-.4-2 0-3c.4-.9 1.1-1.6 2.2-2s2-.4 2.9 0zm-3.8 2.6c-.3.6-.3 1.2 0 1.9s.7 1.1 1.3 1.4c.6.3 1.2.3 1.9 0s1.2-.7 1.4-1.3c.3-.6.3-1.2 0-1.9-.2-.7-.7-1.1-1.3-1.4-.6-.3-1.2-.3-1.9 0s-1.2.7-1.4 1.3zM64.2 27.5l.2 2.1v1.1c0 .3-.2.6-.4.8-.4.5-.9.8-1.7.9-.7 0-1.2 0-1.7-.5-.5-.4-.7-1-.8-1.8v-.9l-2.7.2V28c-.1 0 7.1-.6 7.1-.6zM63.1 29l-2.1.2v.6c0 .4.2.7.4.9.2.2.5.3.9.3s.6-.2.8-.5c.1-.2.2-.6.1-1V29zM62.7 38.6l.2-1.6-6-.8.2-1.4 6 .8.2-1.6 1.2.2-.6 4.6-1.2-.2zM55.8 40.8l.9.4V41c.4-.8.8-1.4 1.3-1.7.7-.5 1.6-.5 2.5-.2.9.4 1.5 1 1.7 1.8.2.6 0 1.3-.2 2.1v.2l.7.3-.5 1.3-.8-.3v.2c-.4.8-.8 1.4-1.3 1.7-.7.5-1.6.5-2.5.2-.9-.4-1.5-1-1.7-1.8-.1-.6 0-1.3.2-2.1v-.2l-.9-.4.5-1.3zm4.6 3.3l-3-1.2v.2c-.2.4-.3.8-.2 1.1.1.5.5.8 1 1 .6.2 1 .2 1.4 0 .3-.2.5-.5.7-.9v-.2zm-2.5-2.5l3 1.2v-.2c.2-.4.3-.8.2-1.1-.1-.5-.5-.8-1-1-.5-.2-1-.2-1.4 0-.3.2-.5.5-.7.9v.2zM58 50.5c0 1-.3 1.9-1 2.8-.7.9-1.6 1.3-2.6 1.4-1 0-1.9-.2-2.8-.9-.8-.7-1.3-1.6-1.4-2.6 0-1 .3-1.9 1-2.8.7-.9 1.6-1.3 2.6-1.4 1 0 1.9.2 2.8.9.8.7 1.3 1.6 1.4 2.6zm-4.2-2.1c-.6 0-1.2.3-1.7.9-.5.5-.7 1.1-.6 1.8 0 .6.4 1.2.9 1.7.6.5 1.2.7 1.8.6.6 0 1.2-.3 1.7-.9.5-.5.6-1.1.6-1.8 0-.6-.4-1.2-.9-1.7-.6-.5-1.2-.7-1.8-.6zM51.4 58.3L47.3 61l-3.9-6.1 1.2-.8 3.2 5 1.8-1.1-1.7-2.7c-.1-.2-.3-.4-.3-.5s-.2-.3-.3-.5c-.1-.2-.2-.5-.2-.7v-.7c.1-.5.5-.9 1-1.2.2-.1.3-.2.5-.3l.7 1c-.1 0-.3 0-.4.2-.2.1-.4.3-.4.6v.5c0 .2.1.4.2.5 0 .1.2.3.4.6l2.2 3.5zM44.4 62.4l-1.3.4-1.4-4.6-2.4 5.7-1 .3-2-6.9 1.3-.4 1.4 4.6 2.4-5.7 1-.3 2 6.9zM34.2 63.8c-.7.7-1.7 1-2.8 1-1.1 0-2-.4-2.7-1.1-.7-.7-1-1.6-1-2.7s.4-2 1.1-2.7 1.7-1 2.8-1c1.1 0 2 .4 2.7 1.1.7.7 1 1.6 1 2.7s-.4 2-1.1 2.7zm-.9-4.6c-.4-.5-1-.7-1.7-.7s-1.3.2-1.7.7c-.5.5-.7 1-.7 1.8 0 .7.2 1.3.6 1.8.4.5 1 .7 1.7.7s1.3-.2 1.7-.7c.5-.5.7-1 .7-1.8 0-.7-.2-1.3-.6-1.8zM24.1 63.7l-1-1-.2 1.4-.9-.3.6-1.2-1.4.2v-1l1.4.2-.7-1.2.9-.3.2 1.4 1-1 .6.8-1.2.6 1.2.6-.6.8zM16.6 60.5l1.6-2.6-3.8 1.2-1.5-.9 4.3-1.3-.7-5 1.6 1 .5 4.1h.2l1.6-2.7 1.2.7-3.7 6.2-1.2-.7zM8.7 54.5L5.2 50l5.7-4.4.9 1.1-4.7 3.7 1.8 2.3 4.7-3.7.9 1.1-5.7 4.4zM4 46.1c-.9-.4-1.6-1.2-2-2.2-.4-1.1-.4-2 0-3 .4-.9 1.1-1.6 2.1-2 1-.4 2-.4 2.9 0 .9.4 1.6 1.2 2 2.2.4 1.1.4 2 0 3-.4.9-1.1 1.6-2.1 2-1 .4-2 .4-2.9 0zm3.8-2.5c.3-.6.3-1.2 0-1.9s-.7-1.1-1.3-1.4c-.6-.2-1.2-.2-1.9 0-.7.3-1.2.7-1.4 1.3-.3.6-.3 1.2 0 1.9.2.7.7 1.1 1.3 1.4.6.3 1.2.2 1.9 0 .7-.3 1.2-.7 1.4-1.3zM.4 37.5l-.2-2.1v-1.1c0-.3.2-.6.4-.8.4-.5.9-.8 1.7-.9.7 0 1.2 0 1.7.4s.7 1 .8 1.8v.9l2.7-.3v1.4c.1 0-7 .7-7 .7zM1.5 36l2.1-.2v-.6c0-.4-.2-.7-.4-.9-.2-.2-.5-.3-.9-.3s-.6.2-.8.5c-.1.2-.2.6-.1 1v.5zM1.8 26.4L1.6 28l6 .7-.2 1.4-6-.7-.2 1.6H0c0-.1.6-4.8.6-4.8h1.2zM8.7 24.1l-.9-.4v.2c-.4.8-.8 1.4-1.3 1.7-.7.5-1.6.6-2.5.2-.9-.4-1.5-1-1.8-1.8-.2-.6 0-1.3.2-2.1v-.2l-.7-.3.5-1.3.8.3v-.2c.4-.8.8-1.4 1.3-1.7.7-.5 1.6-.6 2.5-.2.9.4 1.5 1 1.8 1.8.2.6 0 1.3-.2 2.1v.2l.9.4-.5 1.3zm-2.1-.8l-3-1.2v.2c-.2.4-.3.8-.2 1.1.1.5.5.8 1 1 .5.2 1 .2 1.4 0 .3-.2.5-.5.7-.9v-.2zm-2.5-2.5l3 1.2v-.2c.2-.4.3-.8.2-1.1-.1-.5-.5-.8-1-1-.6-.2-1-.2-1.4 0-.3.2-.5.5-.7.9v.2zM6.4 14.5c0-1 .2-1.9 1-2.8.7-.9 1.6-1.4 2.6-1.5s1.9.2 2.8.9c.8.7 1.3 1.6 1.4 2.6 0 1-.2 1.9-1 2.8s-1.6 1.4-2.6 1.5c-1 .1-1.9-.2-2.8-.9-.8-.7-1.3-1.6-1.4-2.6zm4.1 2c.6 0 1.2-.3 1.6-.9.5-.5.6-1.1.6-1.8 0-.6-.4-1.2-.9-1.7-.6-.5-1.2-.7-1.8-.6-.6 0-1.2.3-1.6.9-.4.5-.6 1.1-.6 1.8 0 .6.4 1.2.9 1.7.6.5 1.2.7 1.8.6zM12.9 6.6L17 3.9l3.9 6-1.2.8-3.3-5-1.8 1.1 1.8 2.7c.1.2.3.4.3.5 0 .1.2.3.3.5s.2.5.2.7v.7c-.1.5-.5.9-.9 1.2-.2.1-.3.2-.5.3l-.7-1c.1 0 .3 0 .4-.2.2-.1.4-.3.4-.6v-.5c0-.2-.1-.4-.2-.5 0-.1-.2-.3-.4-.6L13 6.5zM19.9 2.5l1.3-.4 1.4 4.6L25 1l1-.3 2.1 6.9-1.3.4-1.4-4.6L23 9.2l-1 .3-2.1-6.9zM30 1c.8-.7 1.7-1 2.8-1 1.1 0 2 .4 2.8 1.1.7.7 1 1.6 1 2.7s-.4 2-1.1 2.7c-.7.7-1.7 1-2.8 1-1.1 0-2-.4-2.8-1.1s-1-1.6-1-2.7.4-2 1.1-2.7zm1 4.5c.4.5 1 .7 1.7.7s1.3-.2 1.7-.7c.5-.5.7-1 .7-1.8 0-.7-.2-1.3-.6-1.8-.4-.5-1-.7-1.7-.7s-1.3.2-1.7.7-.7 1.1-.7 1.8.2 1.3.6 1.8z"/></svg>