<svg xmlns="http://www.w3.org/2000/svg" display="none">
    <symbol id="chat" viewBox="0 0 24 21.6">
        <path class="prefix__cls-1" d="M6.1 21.6c-.2 0-.4 0-.6-.1-.5-.2-.7-.7-.7-1.2v-2.1c-2.7-.6-4.8-3-4.8-5.9V6c0-3.3 2.7-6 6-6h12c3.3 0 6 2.7 6 6v6.3c0 3.3-2.7 6-6 6h-7.3l-3.8 3c-.2.2-.5.3-.8.3zM6 2.4C4 2.4 2.4 4 2.4 6v6.3c0 2 1.6 3.6 3.6 3.6h1.2V18l2.7-2.1H18c2 0 3.6-1.6 3.6-3.6V6c0-2-1.6-3.6-3.6-3.6H6z"/><path d="M8.4 9.6c0 .7-.5 1.2-1.2 1.2S6 10.3 6 9.6s.5-1.2 1.2-1.2 1.2.5 1.2 1.2zM13.2 9.6c0 .7-.5 1.2-1.2 1.2s-1.2-.5-1.2-1.2.5-1.2 1.2-1.2 1.2.5 1.2 1.2zM18 9.6c0 .7-.5 1.2-1.2 1.2s-1.2-.5-1.2-1.2.5-1.2 1.2-1.2 1.2.5 1.2 1.2z"/>
    </symbol>
    <symbol id="tg" viewBox="0 0 24 20">
        <path d="M22 .2s2.2-.9 2 1.2c0 .9-.6 3.9-1 7.2l-1.5 9.7s-.1 1.4-1.2 1.7-2.8-.9-3.1-1.1c-.2-.2-4.6-3-6.2-4.3-.4-.4-.9-1.1 0-2l6.5-6.2c.7-.7 1.5-2.5-1.6-.4l-8.6 5.9s-1 .6-2.8 0L.4 10.7s-1.5-.9 1-1.9C7.6 5.9 15.2 3 22 .2z"/>
    </symbol>
    <symbol id="vk" viewBox="0 0 24 14.3">
        <path d="M23.5 1c-.3.8-.6 1.6-1.1 2.3-.4.7-1 1.6-1.6 2.6-.5.8-.8 1.2-.8 1.2l-.3.6c0 .2.1.4.3.5l.4.4c2.1 2.2 3.3 3.7 3.6 4.5v.3c0 .2 0 .4-.2.5-.2.2-.4.3-.7.3h-2.6c-.3 0-.6-.1-.9-.3-.4-.3-.7-.6-1-.9-.5-.5-.9-1-1.2-1.3-1.2-1.1-2.1-1.7-2.6-1.7-.2 0-.3 0-.4.1-.1.1-.2.3-.2.5V13.4c0 .2-.1.5-.3.6-.4.2-.8.3-1.3.3h-.3c-1.6 0-3-.5-4.3-1.3-1.5-.9-2.8-2.1-3.7-3.5-.9-1.2-1.8-2.6-2.5-4v-.2C1.3 4.5.9 3.5.5 2.5v-.2C.3 1.8.2 1.3.1.8 0 .3.3 0 .9 0h2.7c.2 0 .5 0 .7.2.2.2.3.5.4.8.5 1.4 1 2.5 1.6 3.6.5.8 1 1.7 1.6 2.4.5.6.9 1 1.2 1 .1 0 .3 0 .3-.2s.1-.4.1-.6v-.1-3.9c0-.5-.1-.9-.3-1.3-.1-.2-.3-.5-.5-.7-.2-.2-.3-.4-.3-.6 0-.2 0-.3.2-.4.1-.1.3-.2.5-.2h4.2c.2 0 .4 0 .5.2.1.2.2.4.2.7v5.3c0 .2 0 .4.1.5 0 .1.2.2.3.2.2 0 .3 0 .5-.2.3-.2.5-.4.7-.6.6-.7 1.2-1.4 1.7-2.3.3-.6.7-1.3 1.1-2.1 0-.1.4-1 .4-1 .2-.4.6-.8 1.1-.8h2.6c.7 0 1 .3.8 1z"/>
    </symbol>
    <symbol id="github" viewBox="0 0 24 24">
        <path d="M12 0c6.6 0 12 5.5 12 12.3s-3.4 10-8.2 11.7c-.6.1-.8-.3-.8-.6V20c0-1.7-.4-1.9-.8-2.3 2.7-.3 5.5-1.3 5.5-6.1s-.5-2.4-1.2-3.3c.1-.3.5-1.6-.1-3.3 0 0-1-.3-3.3 1.3-1-.3-2-.4-3-.4s-2 .1-3 .4C6.8 4.7 5.8 5 5.8 5c-.7 1.7-.2 2.9-.1 3.3-.8.9-1.2 2-1.2 3.3 0 4.7 2.8 5.8 5.5 6.1-.3.3-.7.8-.8 1.6-.7.3-2.4.9-3.5-1 0 0-.6-1.2-1.8-1.3 0 0-1.2 0 0 .7 0 0 .8.4 1.3 1.8 0 0 .7 2.2 4 1.5v2.3c0 .3-.2.7-.8.6-5-1.5-8.4-6.2-8.4-11.6S5.4 0 12 0" fill-rule="evenodd"/>
    </symbol>
    <symbol id="home" viewBox="0 0 24 24">
        <path d="M17.9 24H6.1c-2.1 0-3.8-1.7-3.8-3.8v-7c-.6.4-1.4.4-1.9-.1-.6-.6-.6-1.5 0-2.1L11 .4c.6-.6 1.5-.6 2.1 0l10.5 10.5c.6.6.6 1.5 0 2.1s-1.3.6-1.9.1v7c0 2.1-1.7 3.8-3.8 3.8zM5.3 10.3v9.9c0 .5.4.9.9.9h11.7c.5 0 .9-.4.9-.9v-9.9l-6.7-6.7-6.7 6.7z"/>
    </symbol>
    <symbol id="portfolio" viewBox="0 0 24 24">
        <path d="M21.6 20.4c0 .7-.6 1.2-1.3 1.2h-3.6c-.7 0-1.1-.5-1.1-1.2v-3.6c0-.7.5-1.2 1.1-1.2h3.6c.7 0 1.3.5 1.3 1.2v3.6zm-1.3-7.2h-3.6c-2 0-3.5 1.6-3.5 3.6v3.6c0 2 1.6 3.6 3.5 3.6h3.6c2 0 3.7-1.6 3.7-3.6v-3.6c0-2-1.7-3.6-3.7-3.6zM8.4 20.4c0 .7-.6 1.2-1.3 1.2H3.5c-.7 0-1.1-.5-1.1-1.2v-3.6c0-.7.5-1.2 1.1-1.2h3.6c.7 0 1.3.5 1.3 1.2v3.6zm-1.3-7.2H3.5c-2 0-3.5 1.6-3.5 3.6v3.6c0 2 1.6 3.6 3.5 3.6h3.6c2 0 3.7-1.6 3.7-3.6v-3.6c0-2-1.7-3.6-3.7-3.6zm14.5-6c0 .7-.6 1.2-1.3 1.2h-3.6c-.7 0-1.1-.5-1.1-1.2V3.6c0-.7.5-1.2 1.1-1.2h3.6c.7 0 1.3.5 1.3 1.2v3.6zM20.3 0h-3.6c-2 0-3.5 1.6-3.5 3.6v3.6c0 2 1.6 3.6 3.5 3.6h3.6c2 0 3.7-1.6 3.7-3.6V3.6c0-2-1.7-3.6-3.7-3.6zM8.4 7.2c0 .7-.6 1.2-1.3 1.2H3.5c-.7 0-1.1-.5-1.1-1.2V3.6c0-.7.5-1.2 1.1-1.2h3.6c.7 0 1.3.5 1.3 1.2v3.6zM7.1 0H3.5C1.6 0 0 1.6 0 3.6v3.6c0 2 1.6 3.6 3.5 3.6h3.6c2 0 3.7-1.6 3.7-3.6V3.6c0-2-1.7-3.6-3.7-3.6z" fill-rule="evenodd"/>
    </symbol>
    <symbol id="stack" viewBox="0 0 24 24">
        <path d="M18.8 8.6l.7.8c.2.2.5.3.7.3s.5-.1.7-.3l2.8-3.1c.2-.2.3-.5.3-.8s-.1-.6-.3-.8l-2.8-3.1c-.4-.4-1-.4-1.4 0l-2.8 3.1c-.2.2-.3.5-.3.8s.1.6.3.8l.7.8-2.8 3.1-.8-.8c.6-2.6-.1-5.2-1.9-7.1C9.8 0 6.6-.6 4 .7c-.3.2-.5.4-.6.8s0 .7.3.9L7 6 5.6 7.5 2.3 3.9c-.2-.2-.6-.4-.9-.3-.3 0-.6.3-.7.6-1.3 3-.7 6.5 1.3 8.7 1.2 1.2 2.6 2 4.2 2.2l-2 2.1c-1.4 1.5-1.4 4.1 0 5.6.7.8 1.6 1.2 2.6 1.2.9 0 1.9-.4 2.6-1.2l3.2-3.5 3.2 3.5c.7.8 1.6 1.2 2.6 1.2s1.9-.4 2.6-1.2c.7-.7 1.1-1.7 1.1-2.8 0-1.1-.4-2.1-1.1-2.8l-3.9-4.3-1.2-1.3 2.8-3.1zM20.2 4l1.4 1.5L20.2 7l-1.4-1.5L20.2 4zM3.5 11.4c-1.1-1.2-1.6-2.9-1.4-4.6l2.8 3.1c.4.4 1 .4 1.4 0l2.8-3.1c.4-.4.4-1.1 0-1.5L6.3 2.2c1.5-.2 3.1.3 4.2 1.5 1.3 1.4 1.8 3.4 1.3 5.3l-3.4 3.7c-1.7.5-3.6 0-4.9-1.4zM8 21.3c-.6.7-1.7.7-2.4 0-.6-.7-.6-1.8 0-2.5l7-7.6 2.4 2.5-3.1 3.3L8 21.3zM20.1 20c0 .5-.2.9-.5 1.3-.6.7-1.7.7-2.4 0L14 17.8l2.4-2.5 3.2 3.5c.3.3.5.8.5 1.3z"/>
    </symbol>
    <symbol id="skills" viewBox="0 0 24 19.9">
        <path d="M10.1 4.3h12.4c.9 0 1.5-.7 1.5-1.5s-.7-1.5-1.5-1.5H10.1c-.9 0-1.5.7-1.5 1.5s.7 1.5 1.5 1.5zM22.5 8.4H10.1c-.9 0-1.5.7-1.5 1.5s.7 1.5 1.5 1.5h12.4c.9 0 1.5-.7 1.5-1.5s-.7-1.5-1.5-1.5zM22.5 15.6H10.1c-.9 0-1.5.7-1.5 1.5s.7 1.5 1.5 1.5h12.4c.9 0 1.5-.7 1.5-1.5s-.7-1.5-1.5-1.5zM5 8.7H4c0-.1-.5-1.1-.5-1.1-.1-.3-.4-.4-.7-.4s-.6.2-.7.4l-.5.9H.7c-.3.2-.5.4-.6.7 0 .3 0 .6.2.8l.7.7-.2 1c0 .3 0 .6.3.8.1 0 .3.1.5.1H2l.9-.5.9.5h.4c.4 0 .8-.3.8-.8v-.2l-.2-1 .7-.7c.2-.2.3-.5.2-.8 0-.3-.3-.5-.6-.5zM5 1.5H4C4 1.4 3.5.4 3.5.4 3.4.1 3.1 0 2.8 0s-.6.2-.7.4l-.5.9H.7c-.3.2-.5.4-.6.7 0 .3 0 .6.2.8l.7.7-.2 1c0 .3 0 .6.3.8.1 0 .3.1.5.1H2l.9-.5.9.5h.4c.4 0 .8-.3.8-.8v-.2l-.2-1 .7-.7c.2-.2.3-.5.2-.8 0-.3-.3-.5-.6-.5zM5 16H4c0-.1-.5-1.1-.5-1.1-.1-.3-.4-.4-.7-.4s-.6.2-.7.4l-.5.9H.7c-.3.2-.5.4-.6.7 0 .3 0 .6.2.8l.7.7-.2 1c0 .3 0 .6.3.8.1 0 .3.1.5.1H2l.9-.5.9.5h.4c.4 0 .8-.3.8-.8v-.2l-.2-1 .7-.7c.2-.2.3-.5.2-.8 0-.3-.3-.5-.6-.5z"/>
    </symbol>
    <symbol id="contacts" viewBox="0 0 24 19.2">
        <path d="M19 19.2H5c-1.5 0-2.3 0-3.1-.4-.7-.3-1.2-.9-1.6-1.6-.3-.7-.3-1.6-.3-3V5v-.2C0 3.5 0 2.7.4 2 .7 1.3 1.3.8 2 .4 2.8 0 3.6 0 5.1 0H19c1.5 0 2.3 0 3.1.4.7.3 1.2.9 1.6 1.6.4.7.4 1.5.4 2.8V14.1c0 1.5 0 2.3-.4 3.1-.3.7-.9 1.2-1.6 1.6-.8.4-1.6.4-3.1.4zM4 16.8h16.1l-4.7-5.6-.6.4c-.9.6-1.3.9-2 1-.5.1-1.1.1-1.7 0-.6-.1-1.1-.5-2-1l-.6-.4-4.7 5.6zM2.4 7V14.9l4.2-5.1L2.4 7zm15 2.9l4.2 5.1V7.1l-4.2 2.8zM9.1 8.6l1.5 1c.6.4 1 .7 1.2.7h.6c.2 0 .6-.3 1.2-.7l1.5-1 6.7-4.4c0-.6 0-.9-.1-1.1-.1-.2-.3-.4-.5-.5-.3-.1-.9-.1-2-.1H5c-1 0-1.7 0-2 .1-.2.1-.4.3-.5.5 0 .2-.1.6-.1 1.1l6.7 4.4z"/>
    </symbol>
    <symbol id="arrow" viewBox="0 0 640 720">
        <path d="M320 720h-.7-.3c-5-.1-9.7-1.1-14-2.9-4.8-2-9.3-4.9-13.1-8.7L11.7 428.3c-15.6-15.6-15.6-40.9 0-56.6 15.6-15.6 40.9-15.6 56.6 0L280 583.4V40c0-22.1 17.9-40 40-40s40 17.9 40 40v543.4l211.7-211.7c15.6-15.6 40.9-15.6 56.6 0 15.6 15.6 15.6 40.9 0 56.6l-280 280c-3.9 3.9-8.4 6.8-13.1 8.7-4.4 1.8-9.1 2.8-14 2.9h-.2-.2-.2-.2z"/>
    </symbol>
    <symbol id="send" viewBox="0 0 24 24">
        <path d="M15 24c-.3 0-.7 0-1-.2-.9-.4-1.3-1.2-2.1-2.8l-2.8-5.7s0-.2-.1-.2c0 0-.1 0-.2-.1l-5.7-2.8C1.5 11.4.6 11 .3 10.1 0 9.4 0 8.5.5 7.8 1 7 1.9 6.7 3.6 6.1L19.2.6c1.5-.5 2.3-.8 3.2-.5.7.3 1.3.8 1.6 1.6.3.8 0 1.7-.5 3.2l-5.4 15.7c-.6 1.7-.9 2.6-1.7 3.1-.4.2-.9.4-1.3.4zm-.1-2.5zm.2 0zm-3.6-7.2l2.7 5.5c.3.6.6 1.2.8 1.5.2-.3.4-1 .6-1.6l4.9-14.4-9.1 9.1zM2.7 9c.3.2.9.5 1.5.8l5.5 2.7 9-9L4.3 8.4c-.6.2-1.3.4-1.6.6zm-.2.1zm0-.2z"/>
    </symbol>
    <symbol id="arrow_lightshop" viewBox="0 0 24 22.3">
        <path d="M9.2 15.9v6.4L24 11.1 9.2 0v6.3H0v9.6z"/>
    </symbol>
    <symbol id="share" viewBox="0 0 20.4 24">
        <path d="M12.4 4c0-2.2 1.8-4 4-4s4 1.8 4 4-1.8 4-4 4c-1.1 0-2.1-.5-2.9-1.2L8 10.6v.8c0 .5-.1 1-.3 1.5l6.1 4c.7-.6 1.6-.9 2.5-.9 2.2 0 4 1.8 4 4s-1.8 4-4 4-4-1.8-4-4c0-.6.1-1.1.3-1.6l-6-4c-.6.6-1.6 1-2.6 1-2.2 0-4-1.8-4-4s1.8-4 4-4c1.3 0 2.4.6 3.1 1.5l5.4-3.7c-.1-.4-.1-.8-.1-1.2z"/>
    </symbol>
</svg>