<svg xmlns="http://www.w3.org/2000/svg" display="none">
    <symbol id="chat" viewBox="0 0 24 21.6">
        <path class="prefix__cls-1" d="M6.1 21.6c-.2 0-.4 0-.6-.1-.5-.2-.7-.7-.7-1.2v-2.1c-2.7-.6-4.8-3-4.8-5.9V6c0-3.3 2.7-6 6-6h12c3.3 0 6 2.7 6 6v6.3c0 3.3-2.7 6-6 6h-7.3l-3.8 3c-.2.2-.5.3-.8.3zM6 2.4C4 2.4 2.4 4 2.4 6v6.3c0 2 1.6 3.6 3.6 3.6h1.2V18l2.7-2.1H18c2 0 3.6-1.6 3.6-3.6V6c0-2-1.6-3.6-3.6-3.6H6z"/><path d="M8.4 9.6c0 .7-.5 1.2-1.2 1.2S6 10.3 6 9.6s.5-1.2 1.2-1.2 1.2.5 1.2 1.2zM13.2 9.6c0 .7-.5 1.2-1.2 1.2s-1.2-.5-1.2-1.2.5-1.2 1.2-1.2 1.2.5 1.2 1.2zM18 9.6c0 .7-.5 1.2-1.2 1.2s-1.2-.5-1.2-1.2.5-1.2 1.2-1.2 1.2.5 1.2 1.2z"/>
    </symbol>
    <symbol id="tg" viewBox="0 0 24 20">
        <path d="M22 .2s2.2-.9 2 1.2c0 .9-.6 3.9-1 7.2l-1.5 9.7s-.1 1.4-1.2 1.7-2.8-.9-3.1-1.1c-.2-.2-4.6-3-6.2-4.3-.4-.4-.9-1.1 0-2l6.5-6.2c.7-.7 1.5-2.5-1.6-.4l-8.6 5.9s-1 .6-2.8 0L.4 10.7s-1.5-.9 1-1.9C7.6 5.9 15.2 3 22 .2z"/>
    </symbol>
    <symbol id="vk" viewBox="0 0 24 14.3">
        <path d="M23.5 1c-.3.8-.6 1.6-1.1 2.3-.4.7-1 1.6-1.6 2.6-.5.8-.8 1.2-.8 1.2l-.3.6c0 .2.1.4.3.5l.4.4c2.1 2.2 3.3 3.7 3.6 4.5v.3c0 .2 0 .4-.2.5-.2.2-.4.3-.7.3h-2.6c-.3 0-.6-.1-.9-.3-.4-.3-.7-.6-1-.9-.5-.5-.9-1-1.2-1.3-1.2-1.1-2.1-1.7-2.6-1.7-.2 0-.3 0-.4.1-.1.1-.2.3-.2.5V13.4c0 .2-.1.5-.3.6-.4.2-.8.3-1.3.3h-.3c-1.6 0-3-.5-4.3-1.3-1.5-.9-2.8-2.1-3.7-3.5-.9-1.2-1.8-2.6-2.5-4v-.2C1.3 4.5.9 3.5.5 2.5v-.2C.3 1.8.2 1.3.1.8 0 .3.3 0 .9 0h2.7c.2 0 .5 0 .7.2.2.2.3.5.4.8.5 1.4 1 2.5 1.6 3.6.5.8 1 1.7 1.6 2.4.5.6.9 1 1.2 1 .1 0 .3 0 .3-.2s.1-.4.1-.6v-.1-3.9c0-.5-.1-.9-.3-1.3-.1-.2-.3-.5-.5-.7-.2-.2-.3-.4-.3-.6 0-.2 0-.3.2-.4.1-.1.3-.2.5-.2h4.2c.2 0 .4 0 .5.2.1.2.2.4.2.7v5.3c0 .2 0 .4.1.5 0 .1.2.2.3.2.2 0 .3 0 .5-.2.3-.2.5-.4.7-.6.6-.7 1.2-1.4 1.7-2.3.3-.6.7-1.3 1.1-2.1 0-.1.4-1 .4-1 .2-.4.6-.8 1.1-.8h2.6c.7 0 1 .3.8 1z"/>
    </symbol>
    <symbol id="github" viewBox="0 0 24 24">
        <path d="M12 0c6.6 0 12 5.5 12 12.3s-3.4 10-8.2 11.7c-.6.1-.8-.3-.8-.6V20c0-1.7-.4-1.9-.8-2.3 2.7-.3 5.5-1.3 5.5-6.1s-.5-2.4-1.2-3.3c.1-.3.5-1.6-.1-3.3 0 0-1-.3-3.3 1.3-1-.3-2-.4-3-.4s-2 .1-3 .4C6.8 4.7 5.8 5 5.8 5c-.7 1.7-.2 2.9-.1 3.3-.8.9-1.2 2-1.2 3.3 0 4.7 2.8 5.8 5.5 6.1-.3.3-.7.8-.8 1.6-.7.3-2.4.9-3.5-1 0 0-.6-1.2-1.8-1.3 0 0-1.2 0 0 .7 0 0 .8.4 1.3 1.8 0 0 .7 2.2 4 1.5v2.3c0 .3-.2.7-.8.6-5-1.5-8.4-6.2-8.4-11.6S5.4 0 12 0" fill-rule="evenodd"/>
    </symbol>
</svg>