<svg xmlns="http://www.w3.org/2000/svg" viewBox="0 0 24 24"><path d="M12 0C5.4 0 0 5.4 0 12s5.4 12 12 12 12-5.4 12-12S18.6 0 12 0zm6.1 13.3c.6.5 1.2 1.1 1.7 1.7.2.3.4.5.6.9.2.4 0 .9-.4 1h-2.5c-.6 0-1.1-.2-1.6-.6-.3-.3-.7-.7-1-1.1l-.4-.4c-.3-.2-.6-.2-.8.2-.2.4-.2.8-.3 1.1 0 .6-.2.7-.8.8-1.2 0-2.4-.1-3.5-.8-1-.6-1.7-1.3-2.4-2.2-1.3-1.7-2.2-3.6-3.1-5.6-.2-.4 0-.7.4-.7h2.4c.3 0 .5.2.7.5.4 1.1 1 2.1 1.6 3 .2.3.4.5.6.7.3.2.5.1.6-.2 0-.2.1-.4.1-.6V8.8c0-.5-.3-.8-.8-.8-.2 0-.2-.1 0-.3.2-.2.4-.4.8-.4h2.8c.4 0 .5.3.6.7v3.1c0 .2 0 .7.4.8.2 0 .4-.1.6-.3.7-.7 1.1-1.5 1.6-2.4.2-.4.3-.8.5-1.2.1-.3.3-.4.6-.4H20c.5 0 .6.3.4.7-.2.7-.6 1.3-1.1 1.8-.4.6-.9 1.2-1.4 1.8-.4.6-.4.9.1 1.3z" fill="#e9e9f1"/></svg>