<?xml version="1.0" encoding="UTF-8"?>
<svg id="_Слой_1" data-name="Слой 1" xmlns="http://www.w3.org/2000/svg" version="1.1" viewBox="0 0 154 22">
  <defs>
    <style>
      .cls-1 {
        fill: #4af6cd;
        stroke-width: 0px;
      }
    </style>
  </defs>
  <path class="cls-1" d="M11,0l3.2,7.6,7.9.9-5.9,5.5,1.7,8.1-6.8-4.2-6.8,4.2,1.7-8.1L0,8.5l7.9-.9L11,0Z"/>
  <path class="cls-1" d="M44,0l3.2,7.6,7.9.9-5.9,5.5,1.7,8.1-6.8-4.2-6.8,4.2,1.7-8.1-5.9-5.5,7.9-.9,3.1-7.6Z"/>
  <path class="cls-1" d="M77,0l3.2,7.6,7.9.9-5.9,5.5,1.7,8.1-6.8-4.2-6.8,4.2,1.7-8.1-5.9-5.5,7.9-.9,3.1-7.6Z"/>
  <path class="cls-1" d="M110,0l3.2,7.6,7.9.9-5.9,5.5,1.7,8.1-6.8-4.2-6.8,4.2,1.7-8.1-5.9-5.5,7.8-.9,3.1-7.6Z"/>
  <path class="cls-1" d="M143,0l3.2,7.6,7.9.9-5.9,5.5,1.7,8.1-6.8-4.2-6.8,4.2,1.7-8.1-5.9-5.5,7.9-.9,3.1-7.6Z"/>
</svg>