<svg width="19" height="18" fill="none" xmlns="http://www.w3.org/2000/svg"><path fill-rule="evenodd" clip-rule="evenodd" d="M4.548.666c.93.013 1.594.71 2.433 1.593.208.217.432.455.683.705 1.216 1.217.87 2.21.59 3.006-.303.869-.565 1.619 1.006 3.19 1.572 1.572 2.321 1.31 3.19 1.004.797-.278 1.787-.627 3.005.59.248.248.481.47.698.675.886.843 1.586 1.51 1.598 2.442.009.795-.475 1.607-1.668 2.8l-.528-.358.447.436c-.264.27-.967.992-2.342 1h-.025c-2.077 0-4.785-1.652-8.048-4.915C2.31 9.558.655 6.842.667 4.761c.008-1.375.728-2.079 1-2.343l.022-.025.056-.057C2.941 1.141 3.763.65 4.548.666zm-.016 1.25h-.007c-.374 0-.942.375-1.735 1.145l-.159.157h.002l-.037.039-.056.055c-.201.196-.619.604-.623 1.456-.007 1.193.778 3.407 4.553 7.182 3.758 3.757 5.969 4.55 7.165 4.55h.017c.853-.005 1.26-.423 1.455-.623.06-.061.108-.107.142-.135.83-.836 1.256-1.456 1.251-1.856-.005-.406-.51-.886-1.21-1.552-.222-.21-.464-.442-.719-.697-.661-.659-.987-.546-1.708-.293-.996.35-2.36.828-4.486-1.3-2.127-2.126-1.65-3.49-1.302-4.487.251-.72.366-1.047-.295-1.709-.258-.258-.49-.503-.705-.728-.661-.695-1.139-1.198-1.543-1.204zm7.174 1.715a4.294 4.294 0 013.41 3.41.625.625 0 11-1.226.24 3.05 3.05 0 00-2.423-2.423.624.624 0 11.239-1.227zm-.05-2.96a7.226 7.226 0 016.418 6.411.625.625 0 01-1.242.14 5.985 5.985 0 00-5.315-5.31.625.625 0 01-.551-.69.619.619 0 01.69-.55z" fill="#B0B0B2"/></svg>