<svg xmlns="http://www.w3.org/2000/svg" display="none">
    <symbol id="arrow" viewBox="0 0 6 4">
        <path d="M3 3.68789L0 0.687891L0.5375 0.150391L3 2.62539L5.4625 0.16289L6 0.70039L3 3.68789Z"/>
    </symbol>
    <symbol id="long_arrow" viewBox="0 0 18 14">
        <path d="M10.55.75l-.647.732 5.69 5.029H.666v.976h14.925l-5.689 5.03.647.73 6.783-5.995v-.506L10.55.75z"/>
    </symbol>
    <symbol id="send" viewBox="0 0 14 14">
        <path d="M12.957.388A1.289 1.289 0 0011.67.052L.939 3.173a1.28 1.28 0 00-.923 1.014c-.094.5.236 1.136.669 1.402L4.04 7.65a.87.87 0 001.073-.129l3.842-3.866a.49.49 0 01.707 0 .509.509 0 010 .712L5.813 8.234a.882.882 0 00-.128 1.08l2.05 3.389c.24.402.653.63 1.107.63.053 0 .113 0 .167-.006a1.3 1.3 0 001.087-.927l3.181-10.717a1.31 1.31 0 00-.32-1.295z"/>
    </symbol>
    <symbol id="send" viewBox="0 0 22 20">
        <path fill-rule="evenodd" clip-rule="evenodd" d="M15.659 0c3.33 0 5.84 2.717 5.84 6.32v6.868c0 1.844-.651 3.51-1.836 4.692-1.063 1.059-2.442 1.62-3.988 1.62H5.822c-1.543 0-2.921-.56-3.985-1.62C.652 16.698 0 15.032 0 13.188V6.32C0 2.717 2.51 0 5.84 0h9.819zm0 1.5H5.84C3.326 1.5 1.5 3.527 1.5 6.32v6.868c0 1.443.496 2.732 1.396 3.629C3.672 17.592 4.685 18 5.825 18h9.834c.002-.002.01 0 .016 0 1.14 0 2.153-.408 2.929-1.183.9-.897 1.396-2.186 1.396-3.629V6.32c0-2.793-1.826-4.82-4.341-4.82zm1.576 4.629a.75.75 0 01-.11 1.055l-4.443 3.612a3.042 3.042 0 01-3.799.006L4.398 7.186a.751.751 0 01.94-1.168L9.82 9.63a1.544 1.544 0 001.923-.004l4.436-3.606a.75.75 0 011.056.109z"/>
    </symbol>
    <symbol id="twitter" viewBox="0 0 20 16">
        <path d="M19.2 2.043a8.383 8.383 0 01-2.179.612c.765-.459 1.377-1.185 1.645-2.065-.727.42-1.53.727-2.41.918A3.812 3.812 0 0013.502.322 3.754 3.754 0 009.755 4.07c0 .306.038.574.114.842A10.715 10.715 0 012.106.972c-.306.574-.497 1.186-.497 1.874 0 1.3.65 2.448 1.682 3.136a4.425 4.425 0 01-1.72-.459v.039c0 1.835 1.3 3.365 3.02 3.71-.305.076-.65.114-.994.114-.23 0-.497-.038-.726-.076.497 1.491 1.874 2.6 3.518 2.6-1.3.995-2.906 1.607-4.666 1.607-.306 0-.612 0-.88-.039a10.642 10.642 0 005.776 1.683c6.922 0 10.708-5.737 10.708-10.708v-.498a6.868 6.868 0 001.874-1.912z"/>
    </symbol>
    <symbol id="fb" viewBox="0 0 12 21">
        <path d="M3.883 20.357v-9.124H.813V7.678h3.07V5.056c0-3.044 1.858-4.7 4.573-4.7 1.3 0 2.418.096 2.744.14v3.18H9.317c-1.476 0-1.762.702-1.762 1.732v2.27h3.52l-.458 3.555H7.555v9.124H3.883z"/>
    </symbol>
    <symbol id="inst" viewBox="0 0 24 24">
        <path d="M11.996 2.876c2.972 0 3.324.012 4.497.065a6.174 6.174 0 012.067.383 3.686 3.686 0 012.113 2.113c.245.662.374 1.36.383 2.066.053 1.174.064 1.526.064 4.498 0 2.971-.01 3.323-.064 4.497a6.177 6.177 0 01-.383 2.067 3.685 3.685 0 01-2.113 2.112 6.173 6.173 0 01-2.067.383c-1.173.053-1.525.065-4.497.065s-3.324-.011-4.497-.065a6.174 6.174 0 01-2.067-.383 3.687 3.687 0 01-2.112-2.112 6.174 6.174 0 01-.383-2.067c-.053-1.174-.065-1.526-.065-4.497 0-2.972.011-3.324.065-4.498a6.174 6.174 0 01.383-2.066 3.685 3.685 0 012.112-2.113A6.174 6.174 0 017.5 2.941c1.174-.053 1.526-.065 4.497-.065zm0-2.005c-3.02 0-3.401.013-4.588.067a8.17 8.17 0 00-2.703.517 5.452 5.452 0 00-1.97 1.284A5.452 5.452 0 001.45 4.71a8.17 8.17 0 00-.517 2.703C.88 8.599.867 8.979.867 12c0 3.02.013 3.401.067 4.588a8.17 8.17 0 00.517 2.703c.28.743.718 1.415 1.284 1.971a5.451 5.451 0 001.971 1.284c.865.324 1.78.5 2.703.517 1.187.053 1.566.067 4.588.067 3.023 0 3.402-.012 4.589-.067a8.168 8.168 0 002.702-.517 5.697 5.697 0 003.254-3.256c.324-.865.5-1.779.517-2.703.053-1.186.066-1.566.066-4.587 0-3.02-.012-3.401-.067-4.588a8.17 8.17 0 00-.517-2.703 5.452 5.452 0 00-1.284-1.97 5.452 5.452 0 00-1.97-1.285 8.171 8.171 0 00-2.703-.517C15.398.884 15.017.87 11.995.87z"/><path d="M12 6.285a5.715 5.715 0 100 11.43 5.715 5.715 0 000-11.43zm0 9.425a3.71 3.71 0 110-7.42 3.71 3.71 0 010 7.42zM17.937 7.396a1.335 1.335 0 100-2.671 1.335 1.335 0 000 2.67z"/>
    </symbol>
    <symbol id="git" viewBox="0 0 22 22">
        <path fill-rule="evenodd" clip-rule="evenodd" d="M11.001.871A10.62 10.62 0 00.355 11.517c0 4.701 3.061 8.694 7.275 10.113.532.089.71-.222.71-.532v-1.819c-2.972.665-3.593-1.42-3.593-1.42-.488-1.241-1.198-1.552-1.198-1.552-.976-.665.089-.665.089-.665 1.064.088 1.641 1.109 1.641 1.109.932 1.64 2.484 1.153 3.105.887.089-.71.355-1.153.665-1.42-2.35-.266-4.835-1.197-4.835-5.278 0-1.153.4-2.13 1.11-2.839-.09-.266-.489-1.33.088-2.839 0 0 .887-.266 2.928 1.11A10.69 10.69 0 0111 6.015c.887 0 1.819.134 2.661.355 2.04-1.375 2.928-1.109 2.928-1.109.576 1.464.222 2.529.089 2.84.665.753 1.109 1.685 1.109 2.838 0 4.08-2.484 4.968-4.88 5.234.4.31.71.976.71 1.952v2.927c0 .266.178.621.754.532a10.593 10.593 0 007.274-10.068A10.62 10.62 0 0011.002.87z"/>
    </symbol>
    <symbol id="geo" viewBox="0 0 15 17">
        <path fill-rule="evenodd" clip-rule="evenodd" d="M7.208.666c3.79 0 6.875 3.108 6.875 6.928 0 4.695-5.38 9.322-6.875 9.322S.333 12.289.333 7.594c0-3.82 3.084-6.928 6.875-6.928zm0 1.25c-3.102 0-5.625 2.548-5.625 5.678 0 3.982 4.687 7.862 5.625 8.069.938-.208 5.625-4.088 5.625-8.07 0-3.13-2.523-5.677-5.625-5.677zm0 2.917a2.712 2.712 0 012.71 2.709 2.71 2.71 0 01-2.71 2.707A2.71 2.71 0 014.5 7.542a2.712 2.712 0 012.709-2.71zm0 1.25a1.46 1.46 0 101.458 1.46 1.46 1.46 0 00-1.457-1.46z"/>
    </symbol>
    <symbol id="phone" viewBox="0 0 19 18">
        <path fill-rule="evenodd" clip-rule="evenodd" d="M4.548.666c.93.013 1.594.71 2.433 1.593.208.217.432.455.683.705 1.216 1.217.87 2.21.59 3.006-.303.869-.565 1.619 1.006 3.19 1.572 1.572 2.321 1.31 3.19 1.004.797-.278 1.787-.627 3.005.59.248.248.481.47.698.675.886.843 1.586 1.51 1.598 2.442.009.795-.475 1.607-1.668 2.8l-.528-.358.447.436c-.264.27-.967.992-2.342 1h-.025c-2.077 0-4.785-1.652-8.048-4.915C2.31 9.558.655 6.842.667 4.761c.008-1.375.728-2.079 1-2.343l.022-.025.056-.057C2.941 1.141 3.763.65 4.548.666zm-.016 1.25h-.007c-.374 0-.942.375-1.735 1.145l-.159.157h.002l-.037.039-.056.055c-.201.196-.619.604-.623 1.456-.007 1.193.778 3.407 4.553 7.182 3.758 3.757 5.969 4.55 7.165 4.55h.017c.853-.005 1.26-.423 1.455-.623.06-.061.108-.107.142-.135.83-.836 1.256-1.456 1.251-1.856-.005-.406-.51-.886-1.21-1.552-.222-.21-.464-.442-.719-.697-.661-.659-.987-.546-1.708-.293-.996.35-2.36.828-4.486-1.3-2.127-2.126-1.65-3.49-1.302-4.487.251-.72.366-1.047-.295-1.709-.258-.258-.49-.503-.705-.728-.661-.695-1.139-1.198-1.543-1.204zm7.174 1.715a4.294 4.294 0 013.41 3.41.625.625 0 11-1.226.24 3.05 3.05 0 00-2.423-2.423.624.624 0 11.239-1.227zm-.05-2.96a7.226 7.226 0 016.418 6.411.625.625 0 01-1.242.14 5.985 5.985 0 00-5.315-5.31.625.625 0 01-.551-.69.619.619 0 01.69-.55z"/>
    </symbol>
    <symbol id="email" viewBox="0 0 22 20">
        <path fill-rule="evenodd" clip-rule="evenodd" d="M15.659 0c3.33 0 5.84 2.717 5.84 6.32v6.868c0 1.844-.651 3.51-1.836 4.692-1.063 1.059-2.442 1.62-3.988 1.62H5.822c-1.543 0-2.921-.56-3.985-1.62C.652 16.698 0 15.032 0 13.188V6.32C0 2.717 2.51 0 5.84 0h9.819zm0 1.5H5.84C3.326 1.5 1.5 3.527 1.5 6.32v6.868c0 1.443.496 2.732 1.396 3.629C3.672 17.592 4.685 18 5.825 18h9.834c.002-.002.01 0 .016 0 1.14 0 2.153-.408 2.929-1.183.9-.897 1.396-2.186 1.396-3.629V6.32c0-2.793-1.826-4.82-4.341-4.82zm1.576 4.629a.75.75 0 01-.11 1.055l-4.443 3.612a3.042 3.042 0 01-3.799.006L4.398 7.186a.751.751 0 01.94-1.168L9.82 9.63a1.544 1.544 0 001.923-.004l4.436-3.606a.75.75 0 011.056.109z"/>
    </symbol>
</svg>