<svg xmlns="http://www.w3.org/2000/svg" display="none">
    <symbol id="arrow" viewBox="0 0 6 4">
        <path d="M3 3.68789L0 0.687891L0.5375 0.150391L3 2.62539L5.4625 0.16289L6 0.70039L3 3.68789Z"/>
    </symbol>
    <symbol id="long_arrow" viewBox="0 0 18 14">
        <path d="M10.55.75l-.647.732 5.69 5.029H.666v.976h14.925l-5.689 5.03.647.73 6.783-5.995v-.506L10.55.75z"/>
    </symbol>
    <symbol id="send" viewBox="0 0 14 14">
        <path d="M12.957.388A1.289 1.289 0 0011.67.052L.939 3.173a1.28 1.28 0 00-.923 1.014c-.094.5.236 1.136.669 1.402L4.04 7.65a.87.87 0 001.073-.129l3.842-3.866a.49.49 0 01.707 0 .509.509 0 010 .712L5.813 8.234a.882.882 0 00-.128 1.08l2.05 3.389c.24.402.653.63 1.107.63.053 0 .113 0 .167-.006a1.3 1.3 0 001.087-.927l3.181-10.717a1.31 1.31 0 00-.32-1.295z"/>
    </symbol>
    <symbol id="send" viewBox="0 0 22 20">
        <path fill-rule="evenodd" clip-rule="evenodd" d="M15.659 0c3.33 0 5.84 2.717 5.84 6.32v6.868c0 1.844-.651 3.51-1.836 4.692-1.063 1.059-2.442 1.62-3.988 1.62H5.822c-1.543 0-2.921-.56-3.985-1.62C.652 16.698 0 15.032 0 13.188V6.32C0 2.717 2.51 0 5.84 0h9.819zm0 1.5H5.84C3.326 1.5 1.5 3.527 1.5 6.32v6.868c0 1.443.496 2.732 1.396 3.629C3.672 17.592 4.685 18 5.825 18h9.834c.002-.002.01 0 .016 0 1.14 0 2.153-.408 2.929-1.183.9-.897 1.396-2.186 1.396-3.629V6.32c0-2.793-1.826-4.82-4.341-4.82zm1.576 4.629a.75.75 0 01-.11 1.055l-4.443 3.612a3.042 3.042 0 01-3.799.006L4.398 7.186a.751.751 0 01.94-1.168L9.82 9.63a1.544 1.544 0 001.923-.004l4.436-3.606a.75.75 0 011.056.109z"/>
    </symbol>
</svg>