<svg width="48" height="48" fill="none" xmlns="http://www.w3.org/2000/svg"><g clip-path="url(#prefix__clip0_84_3523)"><mask id="prefix__a" style="mask-type:luminance" maskUnits="userSpaceOnUse" x="0" y="0" width="48" height="48"><path d="M0 0h48v48H0V0z" fill="#fff"/></mask><g mask="url(#prefix__a)" fill-rule="evenodd" clip-rule="evenodd"><path d="M39.797 40.162c0 .388.315.703.703.703h2.707A4.8 4.8 0 0048 36.06V16.476a4.8 4.8 0 00-4.793-4.807H32.429a.703.703 0 000 1.406h10.778a3.394 3.394 0 013.387 3.4V36.06c0 1.88-1.519 3.4-3.387 3.4H40.5a.703.703 0 00-.703.703z" fill="url(#prefix__paint0_linear_84_3523)"/><path d="M6.563 47.938a.703.703 0 00.754-.115l7.847-6.958h21.181a.703.703 0 000-1.406H14.897a.703.703 0 00-.466.177l-6.877 6.098v-5.572a.703.703 0 00-.703-.703H4.793a3.394 3.394 0 01-3.387-3.4V16.474c0-1.88 1.519-3.4 3.387-3.4h10.574a.703.703 0 000-1.406H4.793A4.8 4.8 0 000 16.475v19.583a4.8 4.8 0 004.793 4.807h1.355v6.432c0 .277.162.528.415.641z" fill="url(#prefix__paint1_linear_84_3523)"/><path d="M7.531 22.013c0 .388.315.703.703.703h31.532a.703.703 0 000-1.406H8.234a.703.703 0 00-.703.703z" fill="url(#prefix__paint2_linear_84_3523)"/><path d="M7.531 26.766c0 .388.315.703.703.703h31.532a.703.703 0 000-1.407H8.234a.703.703 0 00-.703.704z" fill="url(#prefix__paint3_linear_84_3523)"/><path d="M7.531 31.518c0 .388.315.703.703.703h18.922a.703.703 0 000-1.406H8.234a.703.703 0 00-.703.703z" fill="url(#prefix__paint4_linear_84_3523)"/><path d="M14.42 9.58A9.58 9.58 0 0024 19.162 9.58 9.58 0 1019.32 1.22a.703.703 0 00.688 1.226 8.174 8.174 0 11-2.552 2.236.703.703 0 10-1.125-.844 9.54 9.54 0 00-1.911 5.743z" fill="url(#prefix__paint5_linear_84_3523)"/><path d="M18.436 15.566A6.624 6.624 0 0124 12.542c2.278 0 4.302 1.196 5.54 3.045A8.138 8.138 0 0124 17.755c-2.15 0-4.104-.83-5.564-2.19zm-1.395.595a9.553 9.553 0 006.959 3 9.553 9.553 0 006.943-2.982.703.703 0 00.101-.833c-1.423-2.5-4.029-4.21-7.044-4.21a8.035 8.035 0 00-7.066 4.207.703.703 0 00.107.818z" fill="url(#prefix__paint6_linear_84_3523)"/><path d="M19.87 8.436a4.129 4.129 0 108.259 0 4.129 4.129 0 00-8.258 0zM24 11.16a2.723 2.723 0 110-5.445 2.723 2.723 0 010 5.445z" fill="url(#prefix__paint7_linear_84_3523)"/></g></g><defs><linearGradient id="prefix__paint0_linear_84_3523" x1="31.726" y1="26.267" x2="48" y2="26.267" gradientUnits="userSpaceOnUse"><stop stop-color="#0CBAF1"/><stop offset="1" stop-color="#E95CE9"/></linearGradient><linearGradient id="prefix__paint1_linear_84_3523" x1="0" y1="29.834" x2="37.048" y2="29.834" gradientUnits="userSpaceOnUse"><stop stop-color="#0CBAF1"/><stop offset="1" stop-color="#E95CE9"/></linearGradient><linearGradient id="prefix__paint2_linear_84_3523" x1="7.531" y1="22.013" x2="40.469" y2="22.013" gradientUnits="userSpaceOnUse"><stop stop-color="#0CBAF1"/><stop offset="1" stop-color="#E95CE9"/></linearGradient><linearGradient id="prefix__paint3_linear_84_3523" x1="7.531" y1="26.766" x2="40.469" y2="26.766" gradientUnits="userSpaceOnUse"><stop stop-color="#0CBAF1"/><stop offset="1" stop-color="#E95CE9"/></linearGradient><linearGradient id="prefix__paint4_linear_84_3523" x1="7.531" y1="31.518" x2="27.859" y2="31.518" gradientUnits="userSpaceOnUse"><stop stop-color="#0CBAF1"/><stop offset="1" stop-color="#E95CE9"/></linearGradient><linearGradient id="prefix__paint5_linear_84_3523" x1="14.42" y1="9.581" x2="33.58" y2="9.581" gradientUnits="userSpaceOnUse"><stop stop-color="#0CBAF1"/><stop offset="1" stop-color="#E95CE9"/></linearGradient><linearGradient id="prefix__paint6_linear_84_3523" x1="16.848" y1="15.148" x2="31.137" y2="15.148" gradientUnits="userSpaceOnUse"><stop stop-color="#0CBAF1"/><stop offset="1" stop-color="#E95CE9"/></linearGradient><linearGradient id="prefix__paint7_linear_84_3523" x1="19.871" y1="8.436" x2="28.129" y2="8.436" gradientUnits="userSpaceOnUse"><stop stop-color="#0CBAF1"/><stop offset="1" stop-color="#E95CE9"/></linearGradient><clipPath id="prefix__clip0_84_3523"><path fill="#fff" d="M0 0h48v48H0z"/></clipPath></defs></svg>