<svg width="48" height="48" fill="none" xmlns="http://www.w3.org/2000/svg"><g clip-path="url(#prefix__clip0_84_3463)"><path d="M45.835 7.875H36a.703.703 0 100 1.406h9.835a.76.76 0 01.759.759v27.076a.76.76 0 01-.759.759H2.165a.76.76 0 01-.759-.759V10.04a.76.76 0 01.759-.759h15.448v1.406H3.516a.703.703 0 00-.704.704v18.578a.703.703 0 101.407 0V12.094h13.394v3.772l-3.01 1.438a.708.708 0 00-.4.635v11.466c0 .271.156.518.4.635l9.094 4.345c.197.092.42.087.606 0l5.113-2.443a.703.703 0 10-.607-1.269l-4.106 1.962v-9.909l7.688-3.672v9.908l-1.045.499a.703.703 0 00.606 1.269l1.445-.69a.704.704 0 00.4-.635V17.94a.708.708 0 00-.4-.635l-3.01-1.438v-3.772H43.78v22.968H4.22V32.97a.703.703 0 10-1.407 0v2.797c0 .388.315.703.704.703h40.968a.703.703 0 00.703-.703V11.39a.703.703 0 00-.703-.704H30.387V9.281H33a.703.703 0 100-1.406h-2.613V6.469h6.304a.703.703 0 00.703-.703V4.098a2.113 2.113 0 001.407-1.989C38.8.946 37.854 0 36.69 0c-1.163 0-2.109.946-2.109 2.11 0 .916.588 1.698 1.406 1.988v.965h-6.304a.703.703 0 00-.704.703v2.109h-4.277V4.098a2.113 2.113 0 001.406-1.989C26.11.946 25.163 0 24 0s-2.11.946-2.11 2.11c0 .916.588 1.698 1.407 1.988v3.777H19.02v-2.11a.703.703 0 00-.704-.702h-6.304v-.965a2.113 2.113 0 001.406-1.989C13.418.946 12.472 0 11.308 0 10.147 0 9.2.946 9.2 2.11c0 .916.588 1.698 1.406 1.988v1.668c0 .388.315.703.704.703h6.304v1.406H2.165A2.167 2.167 0 000 10.04v27.076c0 1.194.971 2.165 2.165 2.165h15.244c-.272 2.58-1.978 4.086-2.515 4.5h-2.988c-1.163 0-2.11.947-2.11 2.11 0 1.163.947 2.109 2.11 2.109h24.188c1.163 0 2.11-.946 2.11-2.11 0-1.163-.947-2.109-2.11-2.109h-2.986c-.53-.413-2.242-1.933-2.516-4.5h15.243A2.167 2.167 0 0048 37.116V10.04a2.167 2.167 0 00-2.165-2.165zm-9.144-6.469a.704.704 0 110 1.408.704.704 0 010-1.408zM24 1.406a.704.704 0 11-.001 1.408A.704.704 0 0124 1.406zm-12.691 0a.704.704 0 11-.002 1.408.704.704 0 01.002-1.408zm7.71 10.688h4.278v1.056l-4.277 2.044v-3.1zm12.444 5.845L24 21.503l-7.463-3.564L24 14.373l7.463 3.566zm-15.854 1.115l7.688 3.672v9.909l-7.688-3.673v-9.908zm13.371-3.86l-4.277-2.044v-1.056h4.277v3.1zm0-5.913v1.406h-4.277V9.281h4.277zm-5.683 0v1.406H19.02V9.281h4.277zm13.5 36.61a.704.704 0 01-.703.703H11.906a.704.704 0 010-1.407h24.188c.388 0 .703.316.703.704zm-5.706-2.11H16.91c.824-.962 1.739-2.463 1.914-4.5h10.354c.175 2.037 1.09 3.538 1.914 4.5z" fill="url(#prefix__paint0_linear_84_3463)"/></g><defs><linearGradient id="prefix__paint0_linear_84_3463" x1="0" y1="24" x2="48" y2="24" gradientUnits="userSpaceOnUse"><stop stop-color="#0CBAF1"/><stop offset="1" stop-color="#E95CE9"/></linearGradient><clipPath id="prefix__clip0_84_3463"><path fill="#fff" d="M0 0h48v48H0z"/></clipPath></defs></svg>