<svg width="20" height="16" fill="none" xmlns="http://www.w3.org/2000/svg"><path d="M19.2 2.043a8.383 8.383 0 01-2.179.612c.765-.459 1.377-1.185 1.645-2.065-.727.42-1.53.727-2.41.918A3.812 3.812 0 0013.502.322 3.754 3.754 0 009.755 4.07c0 .306.038.574.114.842A10.715 10.715 0 012.106.972c-.306.574-.497 1.186-.497 1.874 0 1.3.65 2.448 1.682 3.136a4.425 4.425 0 01-1.72-.459v.039c0 1.835 1.3 3.365 3.02 3.71-.305.076-.65.114-.994.114-.23 0-.497-.038-.726-.076.497 1.491 1.874 2.6 3.518 2.6-1.3.995-2.906 1.607-4.666 1.607-.306 0-.612 0-.88-.039a10.642 10.642 0 005.776 1.683c6.922 0 10.708-5.737 10.708-10.708v-.498a6.868 6.868 0 001.874-1.912z" fill="#fff"/></svg>