<svg xmlns="http://www.w3.org/2000/svg" display="none">
    <symbol id="search" viewBox="0 0 24 24">
        <path d="M23.33 23.33a2.285 2.285 0 000-3.232l-4.716-4.716c-.335-.335-.422-.944-.197-1.36 0 0-.015.063.15-.301a9.68 9.68 0 00.862-4.007A9.713 9.713 0 009.714 0 9.713 9.713 0 000 9.714a9.713 9.713 0 009.714 9.715 9.669 9.669 0 003.996-.857c.368-.166.31-.152.31-.152.422-.226 1.027-.141 1.362.194l4.716 4.716c.893.893 2.34.893 3.232 0zM15.143 9.714a5.429 5.429 0 11-10.858 0 5.429 5.429 0 0110.858 0z"/>
    </symbol>
    <symbol id="geo" viewBox="0 0 11 14">
        <path fill-rule="evenodd" clip-rule="evenodd" d="M5.434.295c1.225 0 2.415.414 3.352 1.165a5.358 5.358 0 012.034 3.926 5.401 5.401 0 01-1.57 4.109l-3.58 3.534a.377.377 0 01-.519 0l-3.53-3.532A5.4 5.4 0 01.049 5.386 5.358 5.358 0 012.081 1.46 5.371 5.371 0 015.434.295zm-2.407 5.39A2.409 2.409 0 005.434 8.09 2.408 2.408 0 007.84 5.684a2.409 2.409 0 00-2.406-2.406 2.409 2.409 0 00-2.407 2.406z"/><path d="M5.434 4.512a1.173 1.173 0 10.001 2.346 1.173 1.173 0 00-.001-2.346z"/>
    </symbol>
    <symbol id="arrow" viewBox="0 0 25 21">
        <path d="M15.369 19.587l8.213-8.15a1.92 1.92 0 000-2.72L15.37.563a1.958 1.958 0 00-2.746 0 1.922 1.922 0 000 2.719l4.806 4.767H2.014a2.012 2.012 0 100 4.027h15.444l-4.835 4.792a1.92 1.92 0 000 2.718 1.953 1.953 0 002.746.002z"/>
    </symbol>
    <symbol id="scroll" viewBox="0 0 21 24">
        <path d="M10.307 23.888c.398-.04.775-.2 1.078-.46l8.139-6.977a1.937 1.937 0 00-1.093-3.447 1.94 1.94 0 00-1.426.504l-6.88 5.899-6.88-5.9a1.94 1.94 0 00-2.78.17 1.937 1.937 0 00.26 2.774l8.14 6.977c.399.342.92.507 1.442.46zM10.307 10.888c.398-.04.775-.2 1.078-.46l8.139-6.977a1.937 1.937 0 10-2.52-2.943l-6.879 5.898L3.245.508a1.94 1.94 0 00-2.78.17 1.937 1.937 0 00.26 2.774l8.14 6.976c.399.342.92.507 1.442.46z"/>
    </symbol>
    <symbol id="wave" viewBox="0 0 40 25">
        <path d="M26.358 4.754l.262-.236c.175-.155.345-.313.51-.469.162-.166.353-.276.521-.417.173-.135.34-.274.509-.399.35-.224.676-.472 1.007-.662.33-.184.638-.387.944-.525l.434-.224.409-.181c.52-.241.95-.388 1.247-.496.297-.096.457-.146.457-.146l.015-.005a.18.18 0 00.116-.116.181.181 0 00-.116-.226s-.18-.057-.509-.117C32 .51 31.792.47 31.551.454c-.243-.02-.526-.05-.84-.04-.158.002-.325-.002-.5.008l-.547.05c-.386.027-.79.115-1.23.204-.224.037-.442.107-.67.177l-.706.22c-.462.194-.968.386-1.46.649-.242.136-.492.278-.743.429l-.38.228-.363.264c-.24.184-.487.37-.738.56-.26.183-.465.42-.703.638l-.701.685c-.212.251-.423.507-.63.771-.205.266-.428.53-.617.812-.181.287-.352.585-.53.882-.168.304-.356.595-.506.918-.146.329-.282.665-.42 1.002a35.75 35.75 0 00-.404 1.016l-.268.954-.27.96-.15.53-.118.436c-.042.147-.075.295-.122.44l-.158.423-.158.427c-.054.142-.124.274-.186.414a12.419 12.419 0 01-1.974 3.037 14.841 14.841 0 01-2.693 2.38c-.976.677-2.008 1.22-3.022 1.678a23.313 23.313 0 01-2.967 1.082 30.126 30.126 0 01-4.696.962 18.65 18.65 0 01-1.824.155.175.175 0 00-.17.151.174.174 0 00.152.195h.004s.68.086 1.87.11c.595.014 1.32.008 2.152-.044a26.64 26.64 0 002.791-.306c2.031-.342 4.422-.962 6.775-2.242 1.174-.637 2.337-1.436 3.375-2.434a15.046 15.046 0 002.694-3.444c.092-.161.191-.317.276-.482l.244-.495c.165-.331.325-.665.457-1.006l.21-.51.052-.128.026-.063.007-.017-.017.051.012-.028.098-.23.395-.917.394-.909c.148-.253.285-.505.42-.756.134-.251.27-.499.392-.752.137-.247.302-.487.447-.73.144-.244.289-.485.424-.729.15-.233.314-.449.463-.673.157-.221.296-.45.448-.668l.485-.607.238-.301c.076-.103.154-.203.242-.288l.506-.535.239-.264z"/><path fill-rule="evenodd" clip-rule="evenodd" d="M38.83 23.451c.636.284 1.007.422 1.007.422.063.023.096.093.072.153a.125.125 0 01-.138.077s-.398-.077-1.08-.251a26.819 26.819 0 01-2.792-.893l-.275-.107a27.668 27.668 0 01-.61-.242l-.432-.19c-.165-.071-.333-.144-.503-.22l-.37-.181-.602-.298-.74-.416-.253-.141-.318-.203-.682-.434a26.509 26.509 0 01-.704-.521 66.11 66.11 0 00-.28-.212l-.503-.44-.445-.391a69.294 69.294 0 00-.267-.281 34.278 34.278 0 01-.617-.657l-.404-.516-.201-.26-.103-.13-.025-.031-.014-.017-.002-.005s.017.031-.03-.05l-.006-.008-.041-.063-.326-.5c-.033-.054-.067-.104-.1-.154a2.46 2.46 0 01-.224-.382l-.153-.306c-.161-.317-.324-.637-.41-.964a33.435 33.435 0 00-.044-.13c-.056-.171-.113-.341-.156-.514l-.046-.285-.062-.389a4.58 4.58 0 00-.016-.13 2.792 2.792 0 01-.022-.206l.003-.342.006-.194c.003-.161.007-.321.032-.48.028-.174.064-.343.1-.511l.031-.15c.026-.144.082-.284.138-.42.028-.07.055-.137.079-.205l.12-.299c.028-.064.065-.126.102-.187a10.38 10.38 0 00.154-.256c.076-.126.15-.25.235-.363l.032-.038c.256-.3.5-.586.798-.798.216-.196.468-.329.705-.454.067-.036.133-.07.197-.106.113-.05.228-.089.34-.126A8.955 8.955 0 0029.148 8c.132-.044.259-.087.393-.1a3.723 3.723 0 011.465-.006c.196.042.364.088.507.13a6.638 6.638 0 01.623.304c.06.035.08.111.045.171a.122.122 0 01-.09.062l-.017.003-.29.043c-.076.014-.164.024-.264.036l-.066.007a8.704 8.704 0 00-.133.039c-.091.026-.189.055-.29.08-.107.017-.216.067-.328.12a3.441 3.441 0 01-.156.069 1.48 1.48 0 00-.338.176 3.415 3.415 0 01-.17.103c-.117.07-.226.163-.336.256-.053.045-.106.09-.16.133-.05.059-.101.114-.154.168-.1.106-.2.21-.278.344-.276.36-.466.813-.572 1.303a1.49 1.49 0 01-.03.136c-.02.078-.04.155-.038.24l-.007.09a4.494 4.494 0 01-.028.306c-.007.073-.003.15.002.227.003.063.007.126.004.188v.053c0 .052.001.105-.001.158.002.05.01.1.018.151a2.986 2.986 0 01.033.3l.02.214c.037.151.07.306.1.462.03.21.088.399.147.591.032.107.066.214.094.327.017.102.077.233.138.364l.07.154.246.544.03.068.003.005.003.007.069.116.14.23.28.465.378.495.292.38.758.819c.272.254.543.507.813.756l.28.234.563.466.859.637c.29.197.577.39.854.576l.833.519c.173.103.344.2.512.296a29.384 29.384 0 001.72.908c.436.21.818.387 1.136.528zm-9.51-7.466c0-.001 0-.002-.002-.002l.009.014.003.004a.252.252 0 01-.01-.017z"/><path d="M31.488 2.852a7.76 7.76 0 00-1.275.366.09.09 0 00-.057.082.086.086 0 00.087.088c.001 0 .517.003 1.276.091.38.037.815.113 1.273.193.458.103.941.196 1.405.342.116.04.233.072.346.115l.33.146c.22.095.426.2.634.271.211.063.416.118.617.155l.583.093c.185.028.364.038.527.046.158.017.304.027.429.027.25.005.417-.013.417-.013l.007-.002.023-.005a.11.11 0 00.065-.14s-.055-.15-.19-.374a3.516 3.516 0 00-.267-.385 3.618 3.618 0 00-.416-.416 3.753 3.753 0 00-.26-.213c-.096-.06-.192-.128-.298-.186a2.602 2.602 0 00-.69-.31 3.201 3.201 0 00-.796-.129c-.275-.024-.55-.036-.825-.05-.273-.024-.545-.021-.811-.026-.266-.007-.529.02-.78.033-.252.03-.492.043-.72.085a16.01 16.01 0 00-.634.116zM37.11 9.003c.166.074.295.157.425.217.238.133.404.213.404.213l.01.005c.013.007.028.01.045.01a.1.1 0 00.096-.101l-.003-.128c-.005-.084-.01-.208-.044-.36-.036-.147-.08-.335-.172-.528a3.073 3.073 0 00-.358-.625 6.06 6.06 0 00-.257-.318c-.099-.098-.197-.207-.308-.304a3.58 3.58 0 00-.753-.525 4.275 4.275 0 00-.904-.326c-.314-.085-.632-.151-.944-.224a12.705 12.705 0 00-1.837-.293 15.37 15.37 0 00-1.6-.06c-.932.012-1.545.105-1.545.105a.09.09 0 00-.075.07.088.088 0 00.07.103s.6.115 1.476.346c.437.113.94.26 1.47.435.264.085.531.188.804.284.27.1.54.21.803.328.263.12.517.256.751.406.238.147.459.299.682.422.223.121.437.227.651.32l.595.278c.19.09.364.175.517.25zM36.182 11.089a2.324 2.324 0 00-.253-.386 1.62 1.62 0 00-.364-.34c-.14-.1-.31-.16-.477-.225-.17-.056-.34-.111-.505-.173a7.092 7.092 0 00-.981-.274 7.55 7.55 0 00-.866-.128c-.505-.052-.848-.03-.848-.03a.076.076 0 00-.061.042.072.072 0 00.034.096s.301.141.734.367c.214.118.458.26.714.414l.384.243c.132.08.256.173.383.26.121.092.237.194.344.299.1.11.207.207.31.29.102.083.225.138.335.195.108.058.226.1.334.143.103.045.21.081.312.111.103.03.185.065.266.087.16.048.276.068.276.068l.005.001a.096.096 0 00.111-.076s.02-.11.009-.29a1.541 1.541 0 00-.05-.32 2.534 2.534 0 00-.146-.374z"/>
    </symbol>
    <symbol id="tide" viewBox="0 0 19 25">
        <path fill-rule="evenodd" clip-rule="evenodd" d="M.422 15.069c0 5.005 4.072 9.077 9.078 9.077 5.006 0 9.078-4.071 9.08-9.077C18.58 8.237 10.237.795 9.881.48a.573.573 0 00-.74-.016C8.784.752.422 7.592.422 15.069zM9.484 1.678zm0 0c-1.62 1.42-7.916 7.324-7.916 13.39 0 4.373 3.557 7.93 7.93 7.93 4.373 0 7.93-3.557 7.93-7.93.001-5.543-6.338-11.876-7.944-13.39z"/><path d="M9.5 24.146l.112-.223-.053-.026H9.5v.25zm0 0l-.112.224.053.027h.06v-.25zm9.08-9.077h.25-.25zM9.881.48l-.166.187.166-.187zm-.74-.016l.156.195h.001L9.141.464zm.343 1.212l.165.189.502-.439h-.667v.25zm0 0v-.25h-.629l.457.432.172-.182zm7.943 13.391h-.25.25zM9.5 23.897c-4.868 0-8.828-3.96-8.828-8.828h-.5c0 5.143 4.184 9.327 9.328 9.327v-.5zm.113.026l-.225.447.225-.447zm8.717-8.854c-.002 4.867-3.962 8.828-8.83 8.828v.5c5.144 0 9.328-4.184 9.33-9.328h-.5zM9.716.668c.172.152 2.334 2.08 4.45 4.815 2.125 2.747 4.164 6.258 4.164 9.586h.5c0-3.505-2.132-7.13-4.268-9.891C12.418 2.406 10.23.455 10.047.293l-.331.375zM9.298.659c.123-.1.3-.095.417.009l.332-.374A.823.823 0 008.984.27l.314.388zM.672 15.07c0-3.652 2.046-7.175 4.171-9.843C6.963 2.566 9.126.797 9.297.66L8.984.27c-.186.15-2.381 1.944-4.532 4.645C2.306 7.608.172 11.244.172 15.069h.5zM9.32 1.489l.328.377-.328-.377zm.164.438v-.5.5zm.172-.431l-.344.363.344-.363zm-.337-.006c-.816.716-2.81 2.56-4.601 4.992-1.787 2.426-3.4 5.472-3.4 8.586h.5c0-2.953 1.536-5.892 3.302-8.29C6.882 4.389 8.846 2.57 9.65 1.867l-.33-.376zm-8 13.578c0 4.511 3.668 8.18 8.179 8.18v-.5c-4.235 0-7.68-3.445-7.68-7.68h-.5zm8.179 8.18c4.51 0 8.18-3.67 8.18-8.18h-.5c0 4.235-3.445 7.68-7.68 7.68v.5zm8.18-8.18c0-2.854-1.625-5.879-3.417-8.353-1.798-2.483-3.797-4.457-4.605-5.22l-.343.365c.797.751 2.77 2.701 4.543 5.149 1.78 2.457 3.322 5.37 3.321 8.059h.5z"/>
    </symbol>
    <symbol id="wind" viewBox="0 0 26 24">
        <path d="M17.334 8.71H0v2.166h17.334A5.423 5.423 0 0022.75 5.46 5.423 5.423 0 0017.334.044a5.423 5.423 0 00-5.417 5.416h2.167a3.254 3.254 0 013.25-3.25 3.254 3.254 0 013.25 3.25 3.254 3.254 0 01-3.25 3.25zM20.584 13.044H0v2.166h20.584a3.254 3.254 0 013.25 3.25 3.254 3.254 0 01-3.25 3.25 3.254 3.254 0 01-3.25-3.25h-2.167a5.423 5.423 0 005.417 5.416A5.423 5.423 0 0026 18.46a5.423 5.423 0 00-5.416-5.416z"/>
    </symbol>
</svg>