<svg xmlns="http://www.w3.org/2000/svg" display="none">
    <symbol id="search" viewBox="0 0 24 24">
        <path d="M23.33 23.33a2.285 2.285 0 000-3.232l-4.716-4.716c-.335-.335-.422-.944-.197-1.36 0 0-.015.063.15-.301a9.68 9.68 0 00.862-4.007A9.713 9.713 0 009.714 0 9.713 9.713 0 000 9.714a9.713 9.713 0 009.714 9.715 9.669 9.669 0 003.996-.857c.368-.166.31-.152.31-.152.422-.226 1.027-.141 1.362.194l4.716 4.716c.893.893 2.34.893 3.232 0zM15.143 9.714a5.429 5.429 0 11-10.858 0 5.429 5.429 0 0110.858 0z"/>
    </symbol>
    <symbol id="geo" viewBox="0 0 11 14">
        <path fill-rule="evenodd" clip-rule="evenodd" d="M5.434.295c1.225 0 2.415.414 3.352 1.165a5.358 5.358 0 012.034 3.926 5.401 5.401 0 01-1.57 4.109l-3.58 3.534a.377.377 0 01-.519 0l-3.53-3.532A5.4 5.4 0 01.049 5.386 5.358 5.358 0 012.081 1.46 5.371 5.371 0 015.434.295zm-2.407 5.39A2.409 2.409 0 005.434 8.09 2.408 2.408 0 007.84 5.684a2.409 2.409 0 00-2.406-2.406 2.409 2.409 0 00-2.407 2.406z"/><path d="M5.434 4.512a1.173 1.173 0 10.001 2.346 1.173 1.173 0 00-.001-2.346z"/>
    </symbol>
    <symbol id="arrow" viewBox="0 0 25 21">
        <path d="M15.369 19.587l8.213-8.15a1.92 1.92 0 000-2.72L15.37.563a1.958 1.958 0 00-2.746 0 1.922 1.922 0 000 2.719l4.806 4.767H2.014a2.012 2.012 0 100 4.027h15.444l-4.835 4.792a1.92 1.92 0 000 2.718 1.953 1.953 0 002.746.002z"/>
    </symbol>
    <symbol id="scroll" viewBox="0 0 21 24">
        <path d="M10.307 23.888c.398-.04.775-.2 1.078-.46l8.139-6.977a1.937 1.937 0 00-1.093-3.447 1.94 1.94 0 00-1.426.504l-6.88 5.899-6.88-5.9a1.94 1.94 0 00-2.78.17 1.937 1.937 0 00.26 2.774l8.14 6.977c.399.342.92.507 1.442.46zM10.307 10.888c.398-.04.775-.2 1.078-.46l8.139-6.977a1.937 1.937 0 10-2.52-2.943l-6.879 5.898L3.245.508a1.94 1.94 0 00-2.78.17 1.937 1.937 0 00.26 2.774l8.14 6.976c.399.342.92.507 1.442.46z"/>
    </symbol>
</svg>