<svg width="79" height="20" fill="none" xmlns="http://www.w3.org/2000/svg"><g clip-path="url(#prefix__clip0_43_1753)" fill="#D1D1D1"><path d="M.454 14.832V4.943l4.85 2.747v4.422l3.88 2.225 3.88-2.225V7.69l4.851-2.747v9.889l-8.73 4.944-8.731-4.944z"/><path fill-rule="evenodd" clip-rule="evenodd" d="M2.879 6.318L.454 4.944 9.184 0l8.731 4.944-2.425 1.374v7.279l-6.305 3.708-6.306-3.708v-7.28zm12.348.148l-2.162 1.225v-.028L9.185 5.44l-3.88 2.224v.028L3.141 6.466v6.978l6.043 3.554 6.042-3.554V6.466z"/><path d="M22.564 14.05V5.744h1.537v6.882h3.725v1.424h-5.262zM31.143 14.218c-.574 0-1.09-.119-1.548-.356a2.64 2.64 0 01-1.082-1.033c-.264-.45-.396-.992-.396-1.625v-.19c0-.633.132-1.175.396-1.626a2.64 2.64 0 011.082-1.032A3.313 3.313 0 0131.144 8c.574 0 1.09.119 1.548.356a2.64 2.64 0 011.082 1.032c.264.451.396.993.396 1.626v.19c0 .633-.132 1.175-.396 1.625a2.64 2.64 0 01-1.082 1.033 3.314 3.314 0 01-1.549.356zm0-1.33c.45 0 .823-.146 1.118-.438.295-.3.442-.728.442-1.282v-.118c0-.554-.147-.977-.442-1.27-.287-.3-.66-.451-1.118-.451-.45 0-.822.15-1.117.45-.295.294-.442.717-.442 1.27v.12c0 .553.147.98.442 1.28.295.293.667.44 1.117.44zM34.72 11.133v-.19c0-.617.121-1.143.362-1.578.24-.443.559-.78.954-1.009A2.549 2.549 0 0137.352 8c.528 0 .927.095 1.199.285.271.19.47.387.593.593h.21v-.712h1.444v6.93c0 .403-.117.724-.35.961-.233.245-.543.368-.93.368h-3.866V15.12h3.353c.217 0 .326-.12.326-.356v-1.531h-.21a2.026 2.026 0 01-.326.391c-.14.127-.326.234-.558.32-.233.088-.528.131-.885.131-.474 0-.912-.114-1.316-.344a2.632 2.632 0 01-.954-1.008c-.24-.443-.361-.973-.361-1.59zm3.05 1.637c.451 0 .827-.146 1.13-.439.303-.293.454-.704.454-1.234v-.119c0-.538-.151-.949-.454-1.234-.295-.292-.671-.439-1.13-.439-.45 0-.826.147-1.128.44-.303.284-.454.695-.454 1.233v.12c0 .53.151.94.454 1.233.302.293.679.44 1.129.44zM44.647 14.218c-.574 0-1.09-.119-1.548-.356a2.64 2.64 0 01-1.083-1.033c-.264-.45-.395-.992-.395-1.625v-.19c0-.633.131-1.175.395-1.626A2.64 2.64 0 0143.1 8.356 3.314 3.314 0 0144.647 8c.575 0 1.09.119 1.549.356a2.64 2.64 0 011.082 1.032c.264.451.396.993.396 1.626v.19c0 .633-.132 1.175-.396 1.625a2.64 2.64 0 01-1.082 1.033 3.313 3.313 0 01-1.549.356zm0-1.33c.45 0 .823-.146 1.118-.438.295-.3.442-.728.442-1.282v-.118c0-.554-.147-.977-.442-1.27-.287-.3-.66-.451-1.118-.451-.45 0-.822.15-1.117.45-.295.294-.443.717-.443 1.27v.12c0 .553.148.98.443 1.28.295.293.667.44 1.117.44zM48.504 14.05V8.165h1.467v5.886h-1.467zm.733-6.573a.953.953 0 01-.675-.261c-.178-.174-.268-.404-.268-.689 0-.284.09-.514.268-.688a.953.953 0 01.675-.26c.272 0 .497.086.675.26.179.174.268.404.268.688 0 .285-.089.515-.267.689a.928.928 0 01-.676.26zM51.072 16.425V8.166h1.444v.712h.21c.131-.23.337-.431.617-.605C53.622 8.09 54.02 8 54.54 8c.466 0 .897.119 1.292.356.396.23.714.57.955 1.02.24.451.361.997.361 1.638v.19c0 .64-.12 1.186-.361 1.637-.24.451-.559.795-.955 1.033a2.53 2.53 0 01-1.292.344 2.62 2.62 0 01-.885-.13 1.706 1.706 0 01-.57-.31 2.199 2.199 0 01-.337-.403h-.21v3.05h-1.467zm3.027-3.513c.458 0 .834-.146 1.13-.439.302-.3.453-.735.453-1.305v-.118c0-.57-.151-1.001-.454-1.294-.302-.3-.679-.45-1.13-.45-.45 0-.826.15-1.128.45-.303.293-.454.724-.454 1.294v.118c0 .57.151 1.005.454 1.306.302.292.679.438 1.129.438zM60.37 14.218c-.753 0-1.37-.166-1.851-.499-.48-.332-.772-.806-.873-1.423l1.35-.356c.055.276.144.494.268.652.132.158.291.273.478.344.193.063.403.095.628.095.341 0 .594-.06.757-.178a.569.569 0 00.244-.463.458.458 0 00-.233-.415c-.155-.103-.403-.186-.745-.25l-.326-.058a6.08 6.08 0 01-1.106-.32 2.07 2.07 0 01-.803-.582c-.201-.245-.303-.562-.303-.95 0-.585.21-1.032.63-1.34.418-.317.97-.475 1.652-.475.645 0 1.18.146 1.606.439.427.293.707.676.839 1.151l-1.362.427c-.062-.3-.19-.514-.384-.64-.187-.127-.42-.19-.699-.19-.28 0-.492.051-.64.154a.454.454 0 00-.221.403c0 .19.077.332.233.428.155.086.364.154.628.201l.326.06c.435.079.827.185 1.176.32.357.127.636.312.838.558.21.237.315.561.315.973 0 .617-.222 1.095-.664 1.435-.435.333-1.02.499-1.758.499zM65.753 14.146c-.45 0-.846-.102-1.187-.308a2.178 2.178 0 01-.78-.878 2.829 2.829 0 01-.28-1.282V8.166h1.467v3.394c0 .443.105.775.315.996.216.222.523.333.92.333.449 0 .799-.15 1.047-.451.248-.309.372-.736.372-1.282v-2.99h1.467v5.886H67.65v-.772h-.209c-.093.198-.268.392-.524.582-.256.19-.644.284-1.164.284zM70.203 14.05V8.166h1.443v.641h.21c.1-.198.267-.368.5-.51.233-.15.54-.226.92-.226.41 0 .74.083.99.25.248.158.438.367.57.628h.209c.132-.253.319-.462.56-.629.24-.166.581-.249 1.023-.249.357 0 .68.08.967.238.294.15.527.383.698.7.178.308.268.7.268 1.175v3.868h-1.467v-3.762c0-.324-.081-.565-.244-.724-.164-.166-.392-.249-.687-.249-.334 0-.594.111-.78.332-.179.214-.268.523-.268.926v3.477h-1.467v-3.762c0-.324-.081-.565-.244-.724-.163-.166-.392-.249-.687-.249-.334 0-.594.111-.78.332-.179.214-.268.523-.268.926v3.477h-1.466z"/></g><defs><clipPath id="prefix__clip0_43_1753"><path fill="#fff" d="M0 0h79v20H0z"/></clipPath></defs></svg>