<svg width="72" height="21" fill="none" xmlns="http://www.w3.org/2000/svg"><path d="M24.05 13.091v-8h-1.313v8h1.312zM24.852 10.424c0 1.634 1.097 2.796 2.764 2.796 1.667 0 2.764-1.162 2.764-2.796 0-1.635-1.097-2.796-2.764-2.796-1.667 0-2.764 1.161-2.764 2.796zm1.323 0c0-.957.57-1.624 1.44-1.624.872 0 1.442.667 1.442 1.624 0 .946-.57 1.623-1.441 1.623-.871 0-1.441-.677-1.441-1.623zM30.82 10.316c0 1.549 1 2.667 2.496 2.667.774 0 1.44-.312 1.774-.828v.903c0 .871-.549 1.452-1.463 1.452-.817 0-1.376-.398-1.451-1.097h-1.323c.172 1.387 1.237 2.29 2.7 2.29 1.72 0 2.817-1.128 2.817-2.881V7.779h-1.162l-.075.72c-.323-.56-.99-.893-1.774-.893-1.517 0-2.538 1.151-2.538 2.71zm1.334-.032c0-.882.56-1.527 1.387-1.527.904 0 1.506.656 1.506 1.527 0 .882-.602 1.56-1.506 1.56-.817 0-1.387-.667-1.387-1.56zM37.019 10.424c0 1.634 1.096 2.796 2.763 2.796 1.667 0 2.764-1.162 2.764-2.796 0-1.635-1.097-2.796-2.764-2.796-1.666 0-2.763 1.161-2.763 2.796zm1.322 0c0-.957.57-1.624 1.441-1.624.871 0 1.441.667 1.441 1.624 0 .946-.57 1.623-1.44 1.623-.872 0-1.442-.677-1.442-1.623zM43.966 6.693a.78.78 0 100-1.56.764.764 0 00-.775.775c0 .44.334.785.775.785zm-.656 6.398h1.312V7.78H43.31v5.312zM45.77 15.553h1.28V12.36c.334.549 1.054.871 1.85.871 1.57 0 2.506-1.204 2.484-2.86-.032-1.667-.99-2.753-2.495-2.753-.806 0-1.537.355-1.86.968l-.075-.807H45.77v7.775zm1.334-5.119c0-.957.581-1.623 1.495-1.623.914 0 1.463.677 1.463 1.623 0 .947-.549 1.614-1.463 1.614s-1.495-.656-1.495-1.614zM51.717 11.5c.043 1.053.86 1.73 2.13 1.73 1.247 0 2.096-.666 2.096-1.699 0-.763-.473-1.28-1.344-1.494l-.936-.226c-.397-.108-.666-.247-.666-.592 0-.365.29-.623.763-.623.495 0 .817.28.817.742h1.194c-.043-1.054-.828-1.72-1.979-1.72-1.14 0-1.989.666-1.989 1.677 0 .688.398 1.258 1.42 1.527l.924.236c.344.097.56.258.56.56 0 .419-.398.612-.882.612-.581 0-.914-.269-.914-.73h-1.194zM58.665 13.23c.72 0 1.408-.333 1.72-.828l.086.688h1.226V7.778h-1.312v2.785c0 .957-.365 1.495-1.226 1.495-.666 0-1.129-.322-1.129-1.42v-2.86h-1.312v3.323c0 1.269.688 2.13 1.947 2.13zM64.166 13.09v-3.053c0-.86.506-1.27 1.13-1.27.623 0 1.032.399 1.032 1.151v3.173h1.28v-3.044c0-.87.494-1.28 1.118-1.28.634 0 1.043.399 1.043 1.151v3.173h1.269V9.617c0-1.226-.678-2-1.968-2-.806 0-1.44.387-1.699 1.011-.29-.624-.871-1.01-1.753-1.01-.623 0-1.183.29-1.494.763l-.065-.603h-1.204v5.313h1.312zM61.021 17.838a.369.369 0 00.366-.36.37.37 0 00-.366-.365c-.2 0-.37.165-.37.365 0 .196.17.36.37.36zM61.764 16.512c0 .787.483 1.316 1.188 1.316.607 0 1.07-.365 1.167-.91h-.463c-.087.303-.355.483-.673.483-.453 0-.74-.35-.74-.895 0-.555.302-.894.75-.894.308 0 .576.164.658.488h.463c-.082-.55-.514-.92-1.116-.92-.73 0-1.234.54-1.234 1.332zM64.302 16.506c0 .756.514 1.322 1.285 1.322.772 0 1.286-.566 1.286-1.322 0-.756-.514-1.321-1.286-1.321-.771 0-1.285.565-1.285 1.321zm.488 0c0-.514.314-.89.797-.89.484 0 .797.376.797.89 0 .515-.313.89-.797.89-.483 0-.797-.375-.797-.89zM67.77 17.771V16.26c0-.396.246-.653.606-.653.345 0 .56.221.56.617v1.548h.474v-1.506c0-.402.242-.659.607-.659.34 0 .555.221.555.617v1.548h.468v-1.65c0-.582-.34-.936-.915-.936-.391 0-.695.19-.818.498-.129-.308-.411-.498-.823-.498-.313 0-.591.144-.73.39l-.036-.318h-.432v2.514h.483z" fill="#D1D1D1"/><path fill-rule="evenodd" clip-rule="evenodd" d="M.935 10.49l.001-.094.002-.094.003-.093.003-.094.005-.094.006-.094.007-.093.007-.094.009-.094.01-.093.01-.094.011-.093.013-.094.013-.093.015-.093.015-.093.016-.093.018-.093.018-.093.019-.093.02-.092.021-.092.022-.093.023-.092.024-.091.025-.092.026-.091.027-.091.027-.091.03-.09.029-.091.03-.09.032-.09.032-.09.034-.09.034-.088.035-.09.036-.088.037-.088.038-.087.04-.088.039-.087.04-.087.042-.086.043-.086.043-.086.045-.085.045-.085.046-.084.047-.084.048-.084.048-.083.05-.083.05-.082.052-.082.052-.081.053-.08.054-.081.055-.08.055-.08.057-.078.057-.078.058-.078.059-.077.06-.077.06-.076.061-.076.062-.075.063-.074.064-.074.064-.073.066-.073.066-.072.067-.071.067-.071.068-.07.07-.07.07-.068.07-.069.07-.067.073-.067.072-.066.074-.066.074-.064.075-.064.075-.064.076-.062.077-.062.077-.062.079-.06.078-.06.08-.059.08-.058.08-.057.082-.057.082-.056.082-.055.083-.054.084-.054.084-.053.085-.052.085-.05.086-.051.087-.05.087-.048.087-.048.088-.047.089-.046.09-.045.089-.045.09-.043.09-.043.092-.042.091-.04.092-.04.092-.04.093-.038.094-.038.093-.036.094-.036.095-.034.095-.034.095-.033.096-.032.096-.031.096-.03.097-.03.097-.027.097-.028.098-.026.098-.025.098-.025.099-.023.099-.023.099-.021.1-.02.099-.02.1-.019.1-.018.1-.016.1-.016.101-.015.101-.014.101-.012.101-.012.102-.01.101-.01.102-.01.102-.007.102-.007.548-.031.031 2.64H11.021l.075.002.076.002.076.003.076.004.075.004.076.005.076.006.076.007.075.007.076.008.076.009.075.01.076.01.075.011.076.012.075.012.075.014.075.014.075.015.075.015.075.016.075.018.074.017.074.019.075.02.074.02.073.02.074.021.074.023.073.022.073.024.073.025.073.025.072.026.072.026.072.027.072.028.072.03.071.029.071.03.07.03.071.032.07.033.07.033.07.033.069.035.069.035.069.036.068.036.068.037.067.038.068.039.066.039.067.04.066.04.066.042.065.042.065.042.064.043.065.044.063.045.064.045.062.046.063.046.062.048.061.047.061.049.06.049.061.05.06.05.059.05.058.052.059.052.057.052.057.054.057.053.056.055.056.055.055.055.054.057.054.056.053.057.053.058.052.059.052.058.051.06.05.06.05.06.05.061.049.062.048.062.047.062.047.063.046.064.046.064.045.064.044.065.044.065.043.066.043.067.041.066.041.068.04.067.04.068.04.069.038.069.038.07.037.069.036.07.035.07.035.071.034.072.034.071.033.072.032.073.031.072.03.073.03.074.03.073.028.075.027.074.027.075.026.075.026.075.024.075.024.076.023.076.022.076.022.077.02.077.02.077.02.077.018.078.018.078.016.078.016.078.016.078.014.079.014.078.012.08.012.078.012.08.01.079.01.08.009.08.007.079.008.08.006.08.005.08.005.08.004.08.003.08.002.08.002.081v.162l-.001.08-.002.08-.003.081-.003.081-.005.08-.005.081-.006.08-.007.082-.007.08-.009.08-.01.081-.01.08-.01.081-.012.08-.013.08-.014.08-.014.08-.015.08-.016.08-.017.08-.017.08-.019.08-.02.079-.02.079-.02.079-.022.079-.023.078-.023.079-.024.078-.025.078-.026.078-.027.077-.027.078-.028.077-.03.077-.03.077-.03.076-.032.076-.032.076-.033.076-.034.075-.034.075-.036.075-.036.074-.037.074-.038.074-.038.074-.04.072-.04.073-.04.073-.042.072-.043.071-.043.071-.044.071-.044.07-.046.07-.046.07-.046.07-.048.068-.048.069-.05.068-.049.067-.05.067-.052.066-.051.067-.053.065-.053.065-.054.065-.055.064-.055.064-.056.063-.057.062-.057.062-.058.062-.059.06-.06.06-.06.06-.06.06-.06.059-.063.058-.062.058-.063.056-.064.057-.064.056-.065.055-.066.054-.066.054-.066.054-.068.052-.068.052-.068.052-.069.05-.07.05-.07.05-.07.049-.071.048-.072.047-.072.047-.073.046-.073.046-.074.044-.074.044-.075.043-.075.043-.075.042-.076.041-.077.04-.077.04-.077.039-.078.038-.078.037-.079.037-.079.036-.08.035-.08.035-.08.033-.08.033-.081.032-.082.032-.082.03-.082.03-.082.029-.083.028-.083.027-.083.027-.084.025-.084.025-.084.024-.085.024-.085.022-.085.022-.085.02-.086.02-.086.02-.086.018-.087.017-.086.017-.087.016-.087.015-.087.014-.087.013-.088.013-.088.011-.087.01-.088.01-.089.01-.088.008-.088.007-.089.006-.088.006-.09.005-.088.003-.089.003-.089.002-.089.002H9.96l-.089-.002-.09-.003-.088-.003-.09-.004-.089-.005-.089-.006-.089-.006-.089-.008-.089-.008-.089-.01-.089-.01-.089-.01-.089-.013-.088-.013-.089-.013-.088-.015-.089-.015-.088-.017-.088-.017-.088-.018-.088-.019-.088-.02-.087-.02-.088-.022-.087-.022-.087-.024-.087-.024-.086-.025-.087-.026-.086-.026-.086-.028-.085-.028-.086-.03-.085-.03-.085-.03-.084-.033-.085-.032-.084-.034-.083-.034-.084-.036-.083-.035-.082-.037-.083-.038-.082-.038-.082-.04-.08-.04-.082-.041-.08-.042-.08-.042-.08-.044-.08-.044-.078-.045-.079-.046-.078-.046-.077-.047-.077-.049-.077-.049-.076-.05-.076-.05-.075-.05-.075-.053-.074-.052-.074-.054-.073-.054-.073-.055-.072-.056-.072-.056-.07-.057-.071-.058-.07-.059-.07-.059-.068-.06-.068-.06-.068-.062-.067-.062-.066-.063-.066-.063-.065-.065-.065-.064-.064-.066-.063-.066-.063-.066-.062-.068-.06-.068-.061-.069-.06-.069-.06-.07-.058-.07-.058-.071-.057-.072-.056-.072-.056-.073-.055-.074-.054-.073-.054-.075-.053-.075-.052-.076-.051-.076-.05-.077-.05-.077-.05-.078-.047-.078-.048-.079-.046-.08-.046-.08-.045-.08-.044-.08-.044-.081-.043-.082-.041-.082-.041-.083-.04-.083-.04-.083-.038-.084-.038-.084-.036-.085-.036-.085-.035-.085-.035-.086-.033-.086-.032-.087-.032-.087-.03-.087-.03-.088-.03-.088-.027-.088-.028-.088-.026-.09-.025-.088-.025-.09-.023-.09-.023-.09-.021-.09-.021-.09-.02-.09-.02-.092-.017-.091-.017-.091-.016-.092-.016-.092-.014-.092-.013-.092-.013-.092L1 11.608l-.01-.092-.01-.093-.009-.093-.008-.093-.006-.093-.006-.093-.005-.094-.004-.093-.003-.094-.002-.093v-.187zm9.06-6.858l-.021-1.8-.02.002-.094.01-.092.01-.093.012-.092.013-.092.013-.093.015-.091.015-.092.016-.091.017-.092.018-.09.019-.091.02-.09.02-.091.022-.09.022-.09.023-.09.024-.088.025-.089.026-.089.027-.088.027-.088.029-.087.029-.087.03-.087.03-.087.032-.086.033-.085.033-.086.035-.085.035-.084.035-.084.037-.084.038-.083.038-.083.039-.083.04-.082.04-.081.042-.081.042-.08.043-.08.043-.08.045-.08.045-.078.046-.078.047-.078.047-.077.049-.076.049-.076.05-.076.05-.074.05-.075.053-.073.052-.074.053-.072.054-.072.055-.071.055-.071.056-.07.056-.07.058-.069.058-.068.058-.068.06-.067.06-.066.06-.066.06-.065.062-.064.063-.064.062-.063.064-.063.064-.061.065-.061.065-.06.065-.06.067-.059.067-.058.067-.057.068-.057.068-.056.07-.055.069-.055.07-.054.07-.053.071-.052.072-.051.072-.051.072-.05.073-.05.073-.048.074-.047.074-.047.075-.046.075-.045.075-.045.076-.043.077-.043.076-.042.077-.042.078-.04.077-.04.078-.038.079-.038.079-.037.079-.037.08-.035.079-.035.08-.034.08-.033.08-.032.082-.031.081-.03.082-.03.081-.029.082-.028.082-.027.083-.026.082-.025.083-.024.083-.024.084-.023.083-.021.084-.021.083-.02.084-.02.085-.018.084-.018.084-.016.085-.016.084-.015.085-.014.085-.013.085-.012.085-.011.085-.01.085-.01.085-.01.085-.007.086-.007.085-.006.085-.005.086-.005.085-.003.085-.003.086-.001.085-.001.085V10.664l.003.085.002.085.004.085.004.085.006.085.006.085.007.084.008.085.008.084.01.085.01.084.012.084.012.083.013.084.014.084.014.083.016.083.016.083.018.083.018.082.019.082.02.082.02.082.021.082.023.081.023.081.023.081.025.08.026.08.026.08.027.08.028.08.029.079.03.078.03.079.03.078.032.077.033.077.033.077.035.077.034.076.036.076.037.075.037.075.038.075.038.074.04.074.04.073.041.073.042.073.042.072.043.071.044.071.044.071.045.07.046.07.047.069.047.069.048.068.049.068.049.067.05.066.05.067.051.065.052.065.053.065.053.064.054.063.054.063.055.062.056.062.056.061.057.06.057.06.058.06.058.059.06.058.06.057.06.057.06.057.062.055.061.055.063.055.063.053.063.054.064.052.064.052.065.051.066.05.066.05.066.05.067.048.067.048.068.047.068.046.069.046.069.045.07.044.069.044.07.043.07.042.072.041.071.041.072.04.073.04.072.038.073.038.073.037.074.036.074.036.074.035.075.034.075.033.075.033.075.032.076.03.076.031.076.03.077.028.077.029.077.027.077.026.078.026.077.025.078.024.078.024.079.022.078.022.08.021.078.02.079.02.08.019.079.018.079.017.08.016.08.016.08.014.08.014.08.014.08.012.08.012.08.01.08.01.08.01.081.008.08.008.081.007.08.006.081.005.08.004.081.004.081.003.08.002.081.001h.241l.08-.002.081-.003.08-.003.08-.005.08-.005.08-.005.08-.007.08-.007.08-.008.079-.01.08-.009.078-.01.08-.012.078-.012.079-.012.079-.014.078-.014.078-.015.078-.016.078-.016.077-.018.077-.018.078-.019.076-.019.077-.02.076-.021.076-.022.076-.023.076-.023.075-.024.075-.024.075-.026.074-.026.074-.026.074-.028.073-.028.073-.03.073-.029.072-.03.072-.031.072-.032.071-.032.071-.033.07-.034.071-.034.07-.035.07-.036.068-.037.069-.037.068-.037.067-.039.068-.039.067-.04.066-.04.066-.04.065-.042.065-.042.065-.043.064-.043.063-.044.064-.044.062-.046.062-.045.062-.047.06-.046.061-.048.06-.048.06-.048.059-.05.058-.05.058-.05.058-.05.056-.051.057-.052.055-.052.055-.053.055-.054.054-.053.053-.055.053-.055.052-.055.052-.056.05-.056.051-.057.05-.057.049-.058.048-.058.048-.058.048-.06.046-.058.046-.06.046-.06.044-.061.044-.061.044-.062.042-.061.042-.063.042-.062.04-.063.04-.064.04-.063.039-.064.038-.064.037-.065.037-.065.036-.066.035-.065.035-.066.034-.066.033-.067.032-.067.032-.067.032-.067.03-.068.03-.068.029-.068.028-.068.027-.069.027-.068.026-.07.026-.069.024-.07.024-.069.023-.07.023-.07.021-.07.021-.07.02-.071.02-.07.02-.072.017-.07.017-.072.017-.07.016-.072.015-.072.014-.071.014-.072.013-.072.012-.072.011-.072.01-.072.01-.072.01-.072.008-.072.008-.072.007-.072.006-.072.005-.073.005-.072.004-.072.003-.073.003-.072.001-.072.001-.072v-.144l-.001-.072-.002-.072-.003-.072-.004-.072-.004-.072-.005-.072-.005-.071-.007-.072-.007-.071-.008-.072-.008-.07-.01-.072-.01-.07-.01-.071-.012-.071-.012-.07-.013-.07-.014-.07-.014-.07-.015-.07-.016-.07-.016-.07-.017-.068-.018-.07-.019-.068-.019-.069-.02-.068-.02-.068-.022-.068-.022-.067-.022-.067-.024-.067-.024-.067-.024-.067-.026-.066-.026-.066-.026-.065-.027-.065-.028-.065-.03-.065-.028-.064-.03-.064-.03-.064-.032-.063-.032-.063-.032-.063-.033-.062-.034-.062-.034-.062-.035-.06-.035-.062-.036-.06-.037-.06-.037-.06-.038-.059-.039-.059-.039-.058-.04-.058-.04-.057-.04-.057-.041-.057-.042-.056-.043-.056-.042-.055-.044-.055-.044-.055-.044-.054-.045-.053-.046-.053-.046-.052-.047-.052-.047-.052-.047-.051-.048-.05-.049-.05-.049-.05-.05-.05-.05-.048-.05-.048-.05-.047-.052-.047-.052-.046-.052-.046-.053-.045-.053-.045-.054-.044-.053-.044-.055-.043-.055-.043-.055-.041-.055-.042-.056-.04-.057-.04-.056-.04-.057-.04-.058-.038-.058-.038-.058-.037-.058-.037-.06-.036-.058-.036-.06-.034-.06-.035-.06-.034-.06-.033-.06-.032-.062-.032-.061-.031-.062-.03-.061-.03-.063-.03-.062-.029-.063-.028-.063-.027-.065-.028-.06-.025-.065-.026-.063-.025-.064-.024-.065-.024-.064-.023-.065-.022-.064-.022-.065-.02-.065-.021-.066-.02-.065-.019-.066-.018-.066-.018-.065-.017-.066-.017-.067-.015-.066-.015-.066-.015-.067-.014-.066-.013-.067-.012-.067-.012-.066-.011-.067-.01-.067-.01-.067-.01-.067-.008-.067-.008-.067-.007-.068-.007-.067-.006-.067-.005-.067-.005-.067-.003-.068-.004-.067-.002-.067-.002-.067-.001H10.86l.021 1.786h.088l.049.001.049.002.049.001.049.003.05.002.048.003.05.004.049.004.049.005.049.005.05.006.048.006.05.006.048.008.05.007.048.008.05.009.048.009.05.01.048.01.049.01.049.011.048.012.049.012.048.012.048.013.049.014.048.014.048.014.048.015.047.015.048.016.048.017.047.017.047.017.048.018.047.018.046.019.047.02.047.019.046.02.046.02.046.022.046.022.046.022.045.022.045.023.046.024.044.024.045.024.044.025.045.025.044.026.043.027.044.026.043.027.043.028.043.028.042.029.043.029.042.029.041.03.042.03.041.03.04.032.041.031.04.032.04.033.04.032.04.034.039.033.039.034.038.035.038.035.038.035.037.036.037.036.037.036.037.037.036.037.035.038.036.038.035.038.034.039.034.04.034.039.034.04.033.04.033.04.032.041.032.041.031.042.031.042.031.042.03.043.03.043.03.043.028.044.03.044.027.044.028.045.027.044.027.046.027.045.025.046.026.046.025.046.024.047.025.047.023.047.023.047.023.048.022.048.022.048.021.049.021.048.02.05.02.048.02.05.018.05.019.05.018.05.017.05.017.05.016.05.016.052.015.05.015.052.014.052.014.051.013.052.013.052.012.052.011.053.012.052.01.053.01.052.01.053.009.053.008.053.008.054.007.053.007.053.006.054.006.054.005.054.005.053.004.055.003.054.003.054.003.054.001.054.002.054v.218l-.003.055-.002.054-.002.055-.003.054-.004.055-.005.054-.005.055-.005.054-.006.055-.007.055-.007.054-.008.054-.008.055-.009.054-.01.055-.01.054-.01.054-.011.054-.012.054-.012.054-.013.054-.013.054-.014.054-.015.053-.015.054-.016.053-.016.054-.017.053-.017.053-.018.053-.018.053-.02.052-.019.053-.02.052-.02.052-.022.052-.022.052-.022.052-.023.051-.024.052-.024.05-.024.051-.025.051-.026.05-.026.05-.026.05-.028.05-.027.05-.029.05-.028.048-.03.05-.03.048-.03.048-.03.048-.032.048-.032.047-.032.048-.033.047-.034.046-.034.047-.034.046-.035.045-.035.046-.036.045-.037.045-.037.044-.037.044-.038.044-.038.043-.04.043-.038.043-.04.042-.04.042-.041.042-.041.041-.042.041-.042.04-.042.04-.043.04-.043.04-.044.039-.044.038-.045.039-.045.037-.045.038-.046.036-.047.037-.046.036-.048.035-.047.035-.048.035-.048.034-.049.034-.049.034-.05.032-.05.033-.05.032-.05.031-.05.031-.052.03-.051.03-.052.03-.053.03-.052.028-.053.028-.053.027-.054.027-.054.027-.054.026-.055.026-.054.024-.056.025-.055.024-.056.023-.056.023-.056.022-.056.022-.057.021-.057.021-.057.02-.058.02-.057.019-.058.019-.058.017-.059.018-.058.017-.06.016-.058.015-.06.016-.059.014-.06.014-.06.014-.06.012-.06.013-.06.011-.06.011-.06.01-.062.01-.06.01-.062.009-.06.008-.062.007-.062.007-.061.006-.062.006-.061.005-.062.005-.062.003-.062.004-.062.002-.062.002-.062.002h-.063l-.062.001h-.062l-.063-.001-.062-.002-.062-.002L9.743 17l-.062-.004-.063-.004-.062-.004-.063-.006-.062-.006-.062-.006-.063-.007-.062-.008-.062-.008-.063-.01-.062-.01-.062-.01-.062-.01-.062-.012-.062-.012-.062-.012-.062-.014-.061-.014-.062-.014-.061-.016-.061-.015-.062-.017-.06-.017-.062-.017-.06-.019-.061-.018-.06-.02-.06-.02-.06-.02-.06-.022-.06-.022-.06-.022-.06-.023-.059-.024-.059-.024-.059-.025-.058-.026-.058-.026-.058-.027-.058-.027-.058-.027-.057-.029-.057-.029-.057-.03-.057-.03-.056-.03-.056-.032-.056-.031-.055-.033-.055-.033-.055-.034-.055-.034-.054-.034-.054-.035-.053-.036-.054-.037-.052-.036-.053-.038-.052-.038-.052-.038-.051-.04-.051-.039-.051-.04-.05-.04-.05-.042-.05-.041-.049-.042-.049-.043-.048-.043-.048-.044-.047-.044-.048-.045-.046-.045-.046-.045-.046-.047-.045-.046-.045-.047-.045-.048-.044-.048-.043-.048-.043-.05-.043-.049-.042-.05-.041-.05-.041-.05-.04-.051-.04-.052-.04-.052-.04-.052-.038-.053-.038-.053-.038-.054-.037-.054-.036-.055-.036-.054-.035-.056-.035-.055-.034-.056-.034-.056-.033-.057-.033-.057-.032-.058-.031-.057-.03-.058-.031-.059-.03-.059-.029-.059-.028-.06-.028-.059-.028-.06-.026-.06-.027-.06-.025-.062-.025-.061-.024-.062-.024-.061-.023-.062-.022-.063-.022-.062-.021-.063-.02-.063-.02-.063-.02-.064-.019-.064-.018-.064-.017-.064-.017-.064-.016-.065-.015-.065-.015-.065-.014-.065-.013-.065-.013-.066-.012-.065-.011-.066-.011-.066-.01-.066-.01-.066-.008-.067-.008-.066-.007-.067-.007-.067-.006-.066-.005-.068-.005-.066-.004-.068-.003-.067-.003-.067-.002-.067v-.068l-.001-.067v-.135l.003-.068.002-.067.003-.068.004-.067.004-.068.005-.068.006-.067.006-.068.007-.067.008-.068.009-.067.01-.068.01-.067.01-.067.011-.067.012-.068.013-.067.013-.067.015-.067.014-.066.016-.067.016-.067.017-.066.018-.066.018-.067.02-.066.019-.065.02-.066.021-.066.022-.065.022-.065.023-.065.024-.065.025-.065.025-.064.026-.065.026-.064.027-.063.028-.064.029-.063.029-.063.03-.063.03-.063.032-.062.031-.062.033-.062.033-.061.034-.061.034-.061.035-.06.036-.061.036-.06.037-.06.038-.059.038-.059.039-.058.04-.059.04-.058.04-.057.042-.057.042-.057.042-.056.043-.056.044-.056.045-.055.045-.055.045-.055.046-.054.047-.053.047-.053.048-.053.048-.052.05-.052.049-.051.05-.051.05-.05.052-.05.052-.05.052-.05.053-.048.053-.048.054-.047.054-.047.055-.047.056-.046.055-.045.057-.045.057-.045.057-.044.058-.043.058-.043.059-.042.06-.042.059-.04.06-.041.06-.04.062-.04.061-.039.062-.038.063-.038.062-.037.064-.036.063-.036.064-.035.065-.035.064-.034.066-.034.065-.032.066-.033.066-.031.067-.031.067-.03.067-.03.068-.03.068-.027.068-.028.07-.027.068-.027.07-.025.069-.025.07-.025.07-.023.07-.024.071-.022.071-.022.072-.02.071-.02.072-.02.072-.02.072-.018.072-.017.073-.017.073-.016.073-.015.073-.015.074-.014.073-.013.074-.013.074-.012.074-.01.075-.011.074-.01.028-.003zm.031 2.65l-.021-1.806-.061.008-.066.01-.065.01-.066.012-.065.011-.065.013-.065.013-.064.013-.065.015-.064.014-.064.016-.064.016-.064.017-.061.017-.066.018-.063.019-.062.019-.063.02-.062.02-.062.021-.062.022-.062.022-.06.022-.062.024-.06.024-.06.024-.061.025-.06.026-.06.026-.058.027-.06.027-.058.028-.058.028-.058.03-.058.029-.057.03-.057.03-.056.032-.056.031-.056.033-.056.032-.055.034-.054.034-.055.034-.053.035-.054.035-.053.036-.053.036-.052.037-.052.037-.051.038-.051.038-.05.039-.051.039-.05.04-.05.04-.048.04-.048.041-.048.042-.048.042-.047.042-.046.043-.046.043-.046.044-.045.043-.045.045-.044.045-.043.045-.043.046-.043.046-.042.046-.042.047-.041.047-.04.048-.04.047-.04.049-.04.048-.038.05-.038.049-.037.05-.037.05-.037.05-.035.05-.036.051-.034.051-.035.052-.033.052-.033.052-.033.052-.032.053-.031.053-.031.053-.03.054-.03.053-.03.054-.028.055-.028.054-.027.055-.027.055-.026.055-.026.055-.025.056-.024.056-.024.056-.023.056-.023.056-.022.057-.022.057-.02.057-.02.057-.02.057-.02.057-.018.058-.018.058-.017.057-.017.058-.016.058-.015.059-.015.058-.015.058-.013.059-.013.058-.013.059-.011.059-.012.058-.01.06-.01.058-.01.06-.008.058-.008.06-.008.058-.007.06-.006.059-.006.059-.005.06-.004.058-.004.06-.003.059-.003.059-.002.059-.001.06-.001.058v.118l.001.06.002.058.002.059.003.059.003.059.004.058.005.059.005.058.006.058.006.059.007.058.008.058.008.058.009.058.01.057.01.058.01.057.011.057.012.058.012.056.013.057.013.057.014.056.015.056.015.056.016.056.016.056.017.055.017.056.018.055.018.055.02.054.019.054.02.055.02.053.022.054.022.054.022.053.023.053.023.052.024.053.024.052.025.051.025.052.026.051.027.051.026.05.028.051.028.05.028.05.029.05.03.048.03.049.03.048.03.048.031.048.032.047.032.048.033.046.033.046.034.046.034.046.034.045.035.045.035.045.036.044.036.043.036.044.037.043.038.042.038.042.038.042.038.041.04.041.039.04.04.04.04.04.04.04.041.038.041.039.042.038.042.037.042.037.043.037.043.036.043.036.044.035.044.035.044.034.045.034.045.033.045.033.046.033.045.032.047.031.046.031.047.03.047.03.047.03.048.03.047.028.048.028.049.028.048.027.049.027.049.026.05.025.049.025.05.025.05.024.05.024.05.023.05.022.05.022.052.022.05.02.052.021.051.02.052.02.052.019.051.018.052.018.053.017.052.017.052.017.053.015.052.015.053.015.053.014.053.014.053.013.053.013.054.012.053.011.053.011.054.01.053.01.054.01.053.009.054.008.054.008.054.007.053.007.054.006.054.006.054.005.054.005.054.003.053.004.054.003.054.002.054.002.054.002h.053l.054.001h.054l.053-.001.054-.001.053-.002.054-.002.053-.003.054-.003.053-.004.053-.005.053-.005.053-.005.053-.006.053-.006.052-.007.053-.008.052-.008.052-.008.053-.01.052-.009.051-.01.052-.01.052-.011.051-.012.051-.012.051-.012.051-.013.051-.014.05-.014.05-.014.051-.015.05-.016.05-.015.05-.017.049-.017.049-.017.049-.018.048-.018.049-.019.048-.019.048-.02.048-.02.047-.02.048-.02.046-.022.047-.022.047-.022.046-.023.046-.023.045-.024.046-.024.045-.024.044-.025.045-.026.044-.025.044-.027.044-.026.043-.027.043-.027.042-.028.043-.028.042-.029.041-.028.042-.03.04-.03.041-.03.04-.03.04-.03.04-.032.04-.031.038-.032.039-.032.038-.033.038-.033.037-.033.037-.034.037-.034.036-.034.036-.035.035-.034.035-.036.035-.035.034-.036.034-.036.034-.037.033-.037.033-.036.032-.038.032-.037.031-.038.031-.038.03-.039.031-.039.03-.039.03-.039.028-.04.029-.039.028-.04.027-.04.027-.04.027-.041.026-.041.026-.041.026-.042.024-.041.025-.042.024-.042.024-.042.023-.043.023-.042.022-.043.021-.043.022-.043.02-.043.02-.043.02-.044.02-.044.02-.044.018-.043.018-.045.017-.044.018-.044.016-.045.016-.045.016-.044.015-.045.015-.045.014-.046.014-.045.013-.045.013-.045.012-.046.012-.045.011-.046.011-.046.01-.046.01-.045.01-.046.01-.046.008-.046.008-.046.007-.046.007-.046.007-.046.006-.046.006-.047.005-.046.004-.046.004-.046.004-.046.003-.046.003-.047.002-.046.002-.046.001-.046.001-.046v-.138l-.001-.046-.002-.046-.002-.045-.002-.046-.003-.046-.004-.045-.003-.046-.005-.045-.005-.045-.005-.045-.006-.046-.006-.045-.006-.045-.008-.044-.007-.045-.008-.045-.009-.044-.008-.044-.01-.045-.01-.044-.01-.043-.01-.044-.012-.044-.011-.043-.012-.044-.013-.043-.012-.043-.014-.043-.013-.042-.015-.043-.014-.042-.015-.042-.015-.042-.016-.042-.017-.041-.016-.042-.017-.04-.018-.042-.018-.04-.018-.041-.019-.04-.019-.04-.02-.04-.019-.04-.02-.04-.02-.038-.022-.039-.021-.039-.022-.038-.022-.038-.022-.038-.023-.038-.024-.037-.023-.037-.024-.037-.024-.036-.025-.037-.025-.036-.025-.035-.026-.036-.026-.035-.027-.035-.026-.034-.027-.034-.027-.034-.028-.034-.028-.033-.028-.033-.03-.033-.028-.032-.03-.032-.029-.032-.03-.032-.03-.03-.03-.031-.03-.031-.032-.03-.03-.03-.033-.03-.031-.028-.032-.03-.033-.027-.032-.029-.033-.027-.033-.028-.034-.027-.033-.026-.034-.027-.034-.025-.034-.026-.035-.025-.035-.025-.034-.024-.036-.025-.035-.023-.036-.024-.035-.023-.036-.022-.037-.022-.036-.022-.037-.022-.036-.02-.037-.021-.037-.02-.037-.02-.038-.02-.037-.02-.038-.018-.038-.019-.038-.017-.038-.018-.039-.017-.038-.017-.039-.016-.039-.016-.039-.016-.038-.015-.04-.015-.039-.014-.04-.014-.039-.014-.04-.013-.039-.013-.04-.012-.039-.012-.04-.012-.04-.01-.04-.012-.04-.01-.04-.01-.04-.01-.04-.009-.04-.008-.041-.009-.04-.008-.04-.007-.041-.007-.04-.007-.042-.006-.04-.006-.04-.005-.041-.005-.04-.005-.041-.004-.04-.004-.041-.004-.04-.003-.042-.002-.04-.003-.04-.001-.041-.002h-.04l-.04-.001h-.069l.021 1.765h.059l.023.001.024.001.023.002.023.001.024.002.023.002.024.002.023.003.023.002.024.003.023.003.024.004.023.004.024.004.023.004.024.004.023.005.023.005.024.005.023.006.024.005.023.006.023.007.024.006.023.007.023.007.023.007.023.007.024.008.023.008.023.008.023.009.023.008.022.01.023.008.023.01.023.01.022.01.023.01.022.01.023.01.022.012.022.011.022.011.022.012.022.012.022.012.022.013.022.012.021.013.022.013.021.014.021.013.022.014.02.014.021.014.021.015.021.015.02.015.021.015.02.015.02.016.02.016.02.016.02.017.02.016.02.017.018.017.02.017.019.018.019.018.018.018.019.018.018.018.018.019.018.019.018.019.018.019.017.02.018.019.017.02.017.02.016.02.017.02.016.021.016.021.016.021.016.021.016.022.015.021.015.022.015.022.015.023.015.022.014.022.014.023.014.023.014.023.013.023.013.024.013.024.013.023.012.024.013.024.012.024.012.025.011.024.011.025.011.025.011.025.01.025.011.025.01.026.01.025.01.026.009.026.009.026.009.026.008.026.009.027.007.026.008.027.008.027.007.026.007.027.006.027.007.027.006.028.006.027.005.028.005.027.005.028.005.027.004.028.004.028.004.028.004.028.003.028.003.029.002.028.003.028.002.028.002.029.001.028.001.029.001.029V11.439l-.001.03-.001.028-.002.029-.002.029-.002.029-.003.029-.002.029-.004.029-.003.029-.004.029-.004.029-.004.029-.005.029-.005.029-.005.029-.006.029-.005.029-.007.029-.006.029-.007.028-.007.03-.008.028-.008.029-.008.029-.008.028-.009.029-.009.029-.01.028-.009.029-.01.028-.01.028-.01.029-.012.028-.011.028-.011.028-.012.028-.012.028-.013.028-.013.028-.013.027-.013.028-.014.027-.014.028-.014.027-.015.027-.015.027-.015.027-.016.027-.015.026-.016.027-.017.027-.017.026-.017.026-.017.026-.018.026-.017.025-.019.026-.018.025-.019.026-.019.025-.02.025-.019.025-.02.024-.02.025-.02.024-.021.024-.021.024-.022.024-.021.024-.022.023-.022.023-.023.023-.022.023-.023.023-.024.022-.023.022-.024.022-.024.022-.024.022-.025.02-.024.022-.025.021-.026.02-.025.021-.026.02-.026.02-.026.02-.027.02-.026.019-.027.019-.027.019-.028.018-.028.019-.027.018-.029.018-.028.017-.028.017-.03.017-.028.017-.03.016-.029.017-.03.015-.029.016-.03.016-.03.015-.03.014-.031.015-.03.014-.032.014-.03.014-.032.013-.032.013-.031.013-.032.012-.032.012-.032.012-.033.012-.032.011-.033.01-.032.011-.033.01-.033.01-.034.01-.033.01-.034.009-.033.008-.034.009-.034.008-.034.007-.034.008-.034.007-.034.007-.035.006-.035.006-.034.006-.035.005-.035.005-.035.005-.035.004-.035.004-.035.004-.035.003-.036.003-.035.002-.036.003-.035.002-.036.001-.036.001-.035.001h-.144l-.036-.001-.036-.002-.036-.001-.036-.002-.036-.003-.036-.002-.036-.004-.036-.003-.036-.004-.036-.004-.036-.005-.036-.005-.036-.005-.036-.006-.036-.006-.036-.006-.036-.007-.036-.007-.036-.008-.036-.007-.036-.009-.035-.008-.036-.01-.036-.008-.035-.01-.036-.01-.035-.01-.036-.011-.035-.012-.036-.011-.035-.012-.035-.012-.035-.013-.035-.013-.035-.013-.034-.014-.035-.014-.034-.014-.035-.015-.034-.015-.034-.016-.034-.016-.034-.016-.034-.017-.033-.016-.034-.018-.033-.017-.033-.018-.034-.019-.032-.018-.033-.02-.033-.019-.032-.02-.032-.02-.032-.02-.032-.02-.032-.021-.031-.022-.032-.022-.03-.022-.032-.022-.03-.023-.031-.023-.03-.023-.03-.024-.03-.024-.03-.024-.03-.025-.029-.025-.029-.026-.028-.025-.029-.026-.028-.026-.028-.027-.028-.027-.028-.027-.027-.027-.027-.028-.027-.028-.026-.029-.027-.028-.025-.03-.026-.028-.026-.03-.025-.03-.025-.03-.024-.03-.024-.031-.024-.03-.024-.032-.023-.031-.023-.032-.023-.032-.023-.033-.022-.032-.022-.033-.021-.033-.021-.033-.021-.033-.02-.034-.021-.034-.02-.034-.02-.035-.019-.034-.019-.035-.018-.035-.018-.036-.018-.035-.018-.036-.017-.036-.017-.036-.016-.037-.016-.036-.016-.037-.015-.037-.015-.037-.015-.037-.014-.038-.014-.037-.013-.038-.013-.038-.013-.039-.012-.038-.012-.039-.012-.038-.01-.039-.012-.039-.01-.04-.01-.038-.01-.04-.009-.04-.008-.039-.009-.04-.008-.04-.007-.04-.007-.04-.007-.04-.006-.04-.006-.041-.006-.04-.005-.041-.005-.04-.004-.042-.004-.04-.003-.042-.003-.04-.003-.042-.002-.041-.002-.041v-.042l-.002-.041v-.124l.001-.042.001-.041.002-.042.002-.042.003-.041.003-.042.003-.042.004-.041.004-.042.005-.042.005-.041.006-.042.006-.041.007-.042.007-.042.007-.041.008-.042.008-.041.009-.042.009-.041.01-.041.01-.042.01-.04.01-.042.012-.041.012-.041.012-.04.012-.042.013-.04.014-.041.014-.04.014-.041.015-.04.015-.04.016-.04.016-.041.016-.04.017-.04.018-.04.018-.039.018-.04.018-.038.02-.04.019-.038.02-.04.02-.038.02-.038.022-.038.022-.038.022-.038.022-.038.023-.038.023-.037.024-.037.024-.037.024-.037.025-.036.025-.037.026-.036.026-.036.026-.035.027-.036.027-.035.028-.035.028-.035.028-.034.029-.034.029-.034.03-.034.03-.033.03-.034.03-.032.031-.033.032-.032.031-.032.032-.032.033-.032.033-.031.033-.03.033-.031.034-.03.034-.03.035-.03.035-.03.035-.029.035-.029.036-.028.036-.028.037-.028.037-.027.037-.027.037-.027.038-.026.038-.026.038-.026.039-.025.039-.025.04-.025.039-.024.04-.024.04-.023.04-.023.04-.023.042-.023.04-.021.042-.022.042-.021.042-.021.042-.02.042-.02.043-.02.043-.02.043-.018.044-.018.043-.018.044-.018.044-.017.044-.016.045-.017.045-.015.045-.016.045-.015.045-.014.045-.015.046-.013.046-.013.046-.013.046-.013.046-.011.047-.012.047-.01.046-.011.047-.01.047-.01.048-.01.023-.004zm.581 3.395l-.539.128-.031-2.669-.026.006-.038.009-.038.01-.038.009-.038.01-.038.01-.037.011-.038.012-.037.011-.037.012-.037.012-.037.013-.036.013-.037.013-.036.014-.036.014-.036.014-.035.015-.036.015-.035.015-.035.016-.035.016-.035.016-.034.017-.034.017-.034.017-.034.017-.034.018-.033.018-.033.019-.033.019-.033.019-.032.02-.032.02-.032.02-.032.02-.031.02-.032.02-.03.022-.031.022-.03.021-.03.022-.03.023-.03.022-.03.023-.029.023-.029.023-.028.024-.029.024-.028.024L8.332 8l-.028.025-.027.024-.027.026-.026.025-.027.025-.026.026-.025.026-.026.026-.025.027-.025.026-.024.027-.024.027-.024.028-.024.027-.023.028-.023.028-.023.028-.022.028-.022.028-.022.029-.02.029-.022.029-.02.029-.02.03-.021.029-.02.03-.019.029-.02.03-.018.03-.018.03-.018.03-.018.031-.017.03-.017.032-.017.03-.016.032-.016.03-.016.032-.015.032-.015.031-.015.032-.014.032-.014.031-.014.032-.013.032-.013.033-.012.032-.013.032-.012.032-.011.033-.011.032-.011.033-.01.033-.01.032-.01.033-.01.033-.009.033-.009.033-.008.033-.008.033-.008.033-.007.033-.007.033-.006.033-.007.033-.006.034-.005.033-.005.033-.005.033-.005.033-.004.034-.003.033-.004.033-.003.033-.003.033-.002.034-.002.033-.002.033-.001.033-.001.033-.001.033v.132l.002.033.001.033.002.032.002.033.002.033.003.032.003.033.003.032.004.032.004.032.004.033.005.032.005.032.005.031.006.032.006.032.006.032.007.031.007.031.007.032.008.03.008.032.008.03.008.031.01.031.008.03.01.031.01.03.01.03.01.03.01.03.011.03.011.03.012.029.012.03.012.028.012.03.013.028.013.029.013.028.013.028.014.028.014.028.014.028.015.027.015.028.015.027.015.027.016.027.015.027.017.026.016.026.017.026.016.026.017.026.018.025.017.025.018.025.018.025.018.025.019.024.019.024.019.024.019.024.02.023.019.023.02.024.02.022.02.023.02.022.02.022.022.022.02.022.022.021.021.021.022.021.022.02.022.021.022.02.022.02.023.02.022.02.023.018.023.02.023.018.024.018.023.018.024.018.024.018.024.017.024.017.024.017.024.017.025.016.024.016.025.016.025.015.025.015.025.015.025.015.026.014.025.015.026.014.026.013.025.013.026.013.026.013.026.012.026.013.027.012.026.011.026.012.027.01.026.012.027.01.027.01.027.01.026.01.027.01.027.008.027.01.027.008.027.008.027.008.028.008.027.007.027.007.027.007.028.007.027.006.027.006.028.006.027.005.028.005.027.005.027.005.028.004.027.004.028.004.027.003.027.003.028.003.027.003.028.002.027.002.027.002.028.002.027.001.027.001h.028l.027.001h.108l.027-.001.027-.002.027-.001.026-.002.027-.002.027-.002.026-.002.027-.003.026-.003.027-.003.026-.004.026-.004.026-.004.027-.004.025-.004.026-.005.026-.005.026-.005.025-.006.026-.006.025-.006.026-.006.025-.007.025-.006.025-.007.025-.008.024-.007.025-.008.024-.008.025-.008.024-.008.024-.009.024-.008.024-.01.024-.009.023-.01.023-.009.024-.01.023-.01.023-.01.023-.01.022-.012.023-.01.022-.012.022-.011.023-.012.021-.012.022-.012.022-.012.021-.012.021-.013.022-.013.02-.012.021-.014.02-.013.021-.013.02-.014.02-.014.02-.014.02-.014.02-.014.019-.015.019-.015.019-.015.019-.015.018-.015.018-.015.019-.016.018-.015.017-.016.018-.016.017-.016.018-.016.017-.017.016-.016.017-.017.016-.017.016-.017.016-.017.016-.017.016-.017.015-.018.015-.017.015-.018.015-.018.014-.018.014-.018.014-.018.014-.018.014-.018.013-.019.014-.018.012-.02.013-.018.013-.019.012-.018.012-.02.012-.019.012-.019.011-.019.011-.02.011-.019.011-.02.01-.019.01-.02.01-.019.01-.02.01-.02.01-.02.009-.02.009-.02.008-.02.009-.02.008-.02.008-.02.008-.02.008-.02.007-.02.007-.02.007-.02.007-.021.006-.02.006-.02.006-.022.006-.02.006-.02.005-.02.005-.021.005-.02.005-.021.004-.02.004-.021.004-.02.004-.021.004-.02.003-.021.003-.02.003-.021.002-.02.003-.021.002-.02.002-.021.002-.02.001-.02.002-.021v-.02l.002-.02v-.041l.001-.02v-.06l-.001-.02-.001-.02-.001-.02-.001-.02-.002-.02-.001-.02-.002-.02-.002-.019-.002-.02-.003-.019-.002-.02-.003-.019-.003-.019-.003-.02-.004-.018-.004-.02-.003-.018-.004-.02-.005-.018-.004-.019-.005-.018-.004-.019-.005-.018-.005-.018-.006-.019-.005-.018-.006-.018-.006-.018-.006-.018-.006-.018-.006-.018-.007-.017-.006-.018-.007-.017-.007-.017-.008-.017-.007-.017-.007-.017-.008-.017-.008-.017-.008-.016-.008-.017-.008-.016-.009-.016-.009-.016-.008-.016-.01-.016-.008-.016-.01-.015-.009-.016-.01-.015-.01-.015-.009-.015-.01-.015-.01-.015-.01-.015-.01-.014-.01-.015-.011-.014-.011-.014-.01-.014-.012-.014-.01-.013-.012-.014-.011-.013-.012-.013-.011-.013-.012-.013-.011-.013-.012-.013-.012-.012-.012-.013-.012-.012-.013-.012-.012-.011-.012-.012-.013-.012-.012-.011-.013-.011-.013-.011-.013-.011-.013-.011-.013-.01-.013-.011-.013-.01-.013-.01-.014-.01-.013-.01-.014-.01-.013-.01-.014-.009-.013-.009-.014-.009-.014-.009-.014-.008-.014-.009-.014-.008-.014-.008-.014-.008-.014-.008-.014-.008-.014-.007-.014-.008-.015-.007-.014-.007-.014-.007-.015-.006-.014-.007-.015-.006-.014-.006-.015-.006-.014-.006-.015-.006-.014-.006-.015-.005-.014-.005-.015-.005-.015-.005-.014-.005-.015-.004-.015-.005-.014-.004-.015-.004-.015-.004-.014-.004-.015-.003-.015-.004-.014-.003-.015-.003-.015-.003-.014-.003-.015-.002-.014-.003-.015-.002-.015-.002-.014-.002-.015-.002-.014-.002-.015-.001-.014-.002-.014-.001-.015-.001-.014-.001h-.015l-.014-.001h-.014l-.014-.001H10.848l-.014.002h-.014l-.013.001-.014.001-.014.002-.013.001-.014.001-.013.002-.014.002-.013.002-.014.002-.013.002-.013.002-.013.003-.013.002-.013.003-.013.003-.013.003z" fill="#D1D1D1"/></svg>