<svg width="72" height="19" fill="none" xmlns="http://www.w3.org/2000/svg"><path d="M8.302 3.573V1.289h-7.2v15.69h7.2v-2.284a5.561 5.561 0 110-11.122zM8.302 3.572v11.123a5.561 5.561 0 000-11.123zM17.903 4.97h1.612v7.765h-1.612V4.97zM20.418 10.075a2.82 2.82 0 112.805 2.82 2.782 2.782 0 01-2.805-2.82zm4.04 0a1.224 1.224 0 10-1.225 1.257 1.191 1.191 0 001.215-1.257h.01z" fill="#D1D1D1"/><path d="M32.405 7.415v5.056c0 1.784-1.397 2.542-2.81 2.542a2.688 2.688 0 01-2.52-1.29l1.36-.784a1.219 1.219 0 001.214.671 1.076 1.076 0 001.204-1.139v-.489a1.896 1.896 0 01-1.553.688 2.686 2.686 0 010-5.373 1.897 1.897 0 011.553.688v-.538l1.552-.032zm-1.552 2.552a1.29 1.29 0 10-1.29 1.236 1.205 1.205 0 001.29-1.236zM33.313 10.075a2.82 2.82 0 112.816 2.82 2.788 2.788 0 01-2.816-2.82zm4.041 0a1.225 1.225 0 10-1.22 1.257 1.191 1.191 0 001.215-1.257h.005zM39.691 5.992a.956.956 0 11.957.956.967.967 0 01-.957-.956zm.156 1.423h1.612v5.32h-1.612v-5.32zM48.358 10.075a2.686 2.686 0 01-2.563 2.821 1.998 1.998 0 01-1.612-.65v2.627h-1.612V7.417h1.612v.5a1.993 1.993 0 011.612-.645 2.686 2.686 0 012.563 2.804zm-1.612 0a1.269 1.269 0 10-1.262 1.3 1.213 1.213 0 001.262-1.3zM53.264 11.139c0 1.225-1.075 1.746-2.214 1.746a2.332 2.332 0 01-2.289-1.268l1.386-.785a.87.87 0 00.898.629c.381 0 .575-.118.575-.333 0-.586-2.617-.274-2.617-2.117 0-1.16.978-1.741 2.085-1.741a2.332 2.332 0 012.106 1.134l-1.386.73a.784.784 0 00-.715-.467c-.28 0-.446.107-.446.295 0 .613 2.617.21 2.617 2.177zM59.105 7.414v5.32h-1.612v-.5a1.835 1.835 0 01-1.516.66c-1.074 0-1.993-.768-1.993-2.202V7.414h1.612v3.036a.875.875 0 00.241.698.887.887 0 00.688.269c.58 0 .989-.344.989-1.075V7.414h1.59zM68.239 9.467v3.267h-1.612V9.606c0-.537-.253-.87-.763-.87s-.833.37-.833 1v2.998H63.42V9.606c0-.537-.252-.87-.763-.87-.51 0-.833.37-.833 1v2.998h-1.612v-5.32h1.612v.49a1.644 1.644 0 011.43-.635 1.574 1.574 0 011.391.699 1.753 1.753 0 011.542-.699c1.258 0 2.053.87 2.053 2.198zM69.593 7.382a1.182 1.182 0 100-2.364 1.182 1.182 0 000 2.364z" fill="#D1D1D1"/></svg>