<svg width="72" height="20" fill="none" xmlns="http://www.w3.org/2000/svg"><path d="M16.647 6.682c.197 0 .262.07.262.261v4.32h2.22c.191 0 .262.071.262.262v.382c0 .191-.071.262-.262.262h-2.924c-.19 0-.267-.071-.267-.262V6.943c0-.19.077-.261.267-.261h.442zM21.327 8.585c0-1.26.797-2.019 2.182-2.019 1.386 0 2.182.759 2.182 2.019v1.68c0 1.26-.802 2.018-2.182 2.018s-2.182-.758-2.182-2.018v-1.68zm3.447 0c0-.71-.441-1.091-1.238-1.091-.796 0-1.232.387-1.232 1.09v1.691c0 .715.436 1.091 1.232 1.091.797 0 1.238-.392 1.238-1.09V8.584zM32.187 9.163c.213 0 .262.071.262.262v1.036a1.635 1.635 0 01-.578 1.288 2.378 2.378 0 01-1.636.512c-1.413 0-2.182-.758-2.182-2.018v-1.69c0-1.244.796-2.008 2.182-2.008 1.09 0 1.8.43 2.1 1.293a.233.233 0 01-.066.293.235.235 0 01-.098.045l-.425.147c-.186.066-.262.027-.328-.164a1.124 1.124 0 00-1.183-.709c-.802 0-1.239.388-1.239 1.091v1.735c0 .714.442 1.09 1.239 1.09.796 0 1.287-.365 1.287-.9v-.403h-1.184c-.196 0-.267-.076-.267-.267v-.371c0-.191.07-.262.267-.262h1.85zM34.702 8.585c0-1.26.796-2.019 2.182-2.019 1.385 0 2.181.759 2.181 2.019v1.68c0 1.26-.801 2.018-2.181 2.018s-2.182-.758-2.182-2.018v-1.68zm3.442 0c0-.71-.442-1.091-1.233-1.091-.791 0-1.238.387-1.238 1.09v1.691c0 .715.442 1.091 1.238 1.091s1.233-.392 1.233-1.09V8.584zM41.635 6.84c0-.12.038-.158.158-.158h.25c.12 0 .148.038.148.158v5.17c0 .12 0 .159-.147.159h-.251c-.12 0-.158-.038-.158-.158V6.84zM47.16 6.682a1.713 1.713 0 110 3.425h-1.636v1.904c0 .12-.028.158-.142.158h-.256c-.115 0-.159-.038-.159-.158V6.84c0-.12.044-.158.159-.158h2.034zm-.05 2.885a1.19 1.19 0 000-2.378h-1.635v2.378h1.636zM53.133 6.572a1.97 1.97 0 012.029 1.19c.044.087 0 .158-.087.201l-.24.11c-.099.038-.137.032-.197-.071a1.484 1.484 0 00-1.505-.895c-.922 0-1.424.365-1.424 1.02a.829.829 0 00.693.84c.293.096.597.154.905.175.373.02.74.095 1.091.223a1.227 1.227 0 01.851 1.293c0 1.02-.742 1.636-2.105 1.636a1.969 1.969 0 01-2.09-1.325.147.147 0 01.093-.207l.24-.088a.148.148 0 01.167.04.146.146 0 01.03.053 1.56 1.56 0 001.56.982c1.03 0 1.538-.36 1.538-1.091a.811.811 0 00-.638-.835 3.819 3.819 0 00-.868-.152l-.589-.077a5.177 5.177 0 01-.545-.147 1.433 1.433 0 01-.486-.256 1.33 1.33 0 01-.436-1.042c.038-.955.753-1.577 2.013-1.577zM58.19 10.303a1.515 1.515 0 002.552 1.013c.282-.264.45-.627.474-1.013V6.84c0-.12.038-.158.158-.158h.251c.12 0 .159.038.159.158v3.458c0 1.238-.731 1.986-2.079 1.986-1.347 0-2.078-.748-2.078-1.986V6.84c0-.12.038-.158.153-.158h.256c.115 0 .153.038.153.158v3.463zM69.31 6.683c.12 0 .16.038.16.158v5.17c0 .12-.04.159-.16.159h-.228c-.115 0-.153-.038-.153-.158V8.864c0-.458.031-.915.093-1.369h-.033c-.17.415-.37.818-.594 1.206l-1.173 2.067a.189.189 0 01-.18.12h-.153a.203.203 0 01-.185-.12l-1.19-2.09a8.805 8.805 0 01-.545-1.188h-.033c.056.458.085.919.088 1.38v3.142c0 .12-.038.158-.159.158h-.212c-.12 0-.158-.038-.158-.158V6.84c0-.12.038-.158.158-.158h.196a.217.217 0 01.218.125l1.91 3.393 1.898-3.36c.06-.115.092-.131.212-.131l.224-.027zM6.944 11.34v3.944a.57.57 0 11-1.14 0v-3.938c.158.116.349.18.545.185a.939.939 0 00.595-.19zm4.854-1.14a.545.545 0 00-.545.546v.687a.57.57 0 101.14 0v-.66a.544.544 0 00-.595-.573zm-7.233 2.635a.982.982 0 01-.545-.186v3.955a.573.573 0 101.145 0v-3.927a.997.997 0 01-.6.158zm5.455-3.818a.546.546 0 00-.573.545V12.6a.573.573 0 101.146 0v-3a.545.545 0 00-.6-.572l.027-.011zm-1.81 1.167a.998.998 0 01-.574-.185v3.965a.573.573 0 101.146 0v-3.96a.965.965 0 01-.6.19l.027-.01zm-4.883 3.038V2.144a.513.513 0 00-.512-.507h-.12a.513.513 0 00-.513.507v11.078a.513.513 0 00.513.513h.12a.513.513 0 00.512-.513zm1.298-.807h-.12a.513.513 0 01-.512-.513V3.464a.513.513 0 01.512-.507h.12a.513.513 0 01.513.507v8.45a.512.512 0 01-.513.512v-.011zm1.806-1.298h-.126a.507.507 0 01-.507-.508V4.773a.508.508 0 01.507-.513h.126a.513.513 0 01.507.513v5.836a.507.507 0 01-.507.508zM8.236 9.78h-.114a.513.513 0 01-.513-.507V6.131a.512.512 0 01.513-.545h.12a.513.513 0 01.513.513v3.163a.512.512 0 01-.513.518h-.006zm1.811-1.172h-.12a.513.513 0 01-.512-.513v-.813a.513.513 0 01.512-.507h.12a.513.513 0 01.513.507v.813a.513.513 0 01-.507.513h-.006z" fill="#D1D1D1"/></svg>