<?xml version="1.0" encoding="UTF-8"?>
<svg id="_Слой_1" data-name="Слой 1" xmlns="http://www.w3.org/2000/svg" version="1.1" viewBox="0 0 800 800">
  <defs>
    <style>
      .cls-1 {
        fill: #7557ff;
        stroke-width: 0px;
      }
    </style>
  </defs>
  <path class="cls-1" d="M639.6,463.6c-3.3-.7-6.4-1.8-9.5-3.1-2.5-1.1-4.8-2.7-6.8-4.6,1.9-16.3,0-30.4,1.6-46.4,6.1-62.1,45.2-42.4,80.2-52.6,21.8-6.1,43.7-18.7,49.2-44.5-23.6-27.6-50.4-52.3-79.9-73.5-95-67.6-219.1-94.7-331.9-75.9,17.3,30.1,43.3,54.2,74.6,69.1,0,0-30.6,0-56.8-19.6-7.7,3.1-23.1,9.1-30.4,12.8,60.5,58.2,154.4,63.4,221,12.3-.3.6-6.2,9.5-13.2,46.7-15.7,79.3-60.9,73.2-116.8,53.2-116.2-42.1-180.1-3.1-238.2-83-16.9,9.5-27.3,27.3-27.3,46.7s11,36.9,27,46.1c8.7-11.6,12.7-14.9,27.9-14.9-23.5,13.3-26.3,25-36.5,57.3-12.3,39-7.1,79-64.5,89.4-30.4,1.5-29.8,22.1-40.9,52.9C54.4,572.1,36,588.1,0,625.9c14.8,17.8,30.1,20,45.8,13.5,32.3-13.5,57.2-55.3,80.5-82.4,26.1-30.1,88.8-17.2,136.2-46.7,32.6-20,48.6-47,27-92.8,13.8,15.3,22.1,34.8,23.4,55.3,54.7-7.1,127.9,59.6,194.5,70.7-6.6-8.3-12.1-17.5-16.3-27.3-7.7-18.5-10.1-35.3-8.6-50.1,6.1,36.6,43,83.6,102.3,87.9,15.1,1.2,31.7-.6,48.9-5.9,20.6-6.1,39.7-14.1,62.4-9.8,16.9,3.1,32.6,11.7,42.4,26.1,14.8,21.5,47,26.1,61.5-.3-32.6-85.1-122.3-90.7-160.4-100.5h0Z"/>
</svg>