<svg version="1.1" id="prefix__Layer_1" xmlns="http://www.w3.org/2000/svg" x="0" y="0" width="120" height="90" xml:space="preserve"><style>.prefix__st3{fill:#ebebeb}</style><g id="prefix__Guides_to_delete"><path fill="#e34e26" d="M28.2 81L21 0h79.3L93 81l-32.4 9z"/><path fill="#ef662a" d="M60.6 6.7v76.5l26.3-7.3L93 6.7z"/><path fill="#fff" d="M35.7 16.6l2.7 30h34.4l-1.1 12.9-11.1 3-11.1-3-.7-8.3h-10l1.5 16 20.3 5.6L81 67.2l2.7-30.5H47.5l-.9-10.2h38l.9-9.9z"/><path class="prefix__st3" d="M60.6 16.6H35.7l2.7 30h22.2v-9.9H47.5l-.9-10.2h14zM60.6 62.5l-11.1-3-.7-8.3h-10l1.5 16 20.3 5.6z"/></g></svg>