<?xml version="1.0" encoding="UTF-8"?>
<svg id="_Слой_1" data-name="Слой 1" xmlns="http://www.w3.org/2000/svg" version="1.1" xmlns:sketch="http://www.bohemiancoding.com/sketch/ns" viewBox="0 0 25.9 34.6">
  <defs>
    <style>
      .cls-1 {
        fill: #db6a26;
        fill-rule: evenodd;
        stroke-width: 0px;
      }
    </style>
  </defs>
  <path id="Fill-16" class="cls-1" d="M25.9,16.6C25.3,7.7,15.7,0,11.7,0,7.7,0,.3,9.3,0,18.8c-.3,8.9,7.3,15.1,10.6,15.8,0-4.2.4-19.7.5-21.5.1-3.7.3-9.4.9-9.6.4-.1.8,3.1.8,5,0,.4,0,1.5,0,3.2.7-.7,1.4-1.4,1.8-1.8,1.2-1.1,1.7-1,1.1,0-.3.6-1.8,2.7-2.9,4.2,0,3,0,6.8,0,10.4,1.5-1.8,3.4-3.9,4.4-4.9,2.1-2,2.3-1.7,1.3.4-.6,1.3-3.5,4.7-5.7,7.4,0,3.2,0,5.8,0,7.1,5.8-1.3,13.5-9.3,13-18" sketch:type="MSShapeGroup"/>
</svg>